<svg width="24" height="24" viewBox="0 0 24 24" fill="none" xmlns="http://www.w3.org/2000/svg">
<g clip-path="url(#clip0_33_20)">
<rect width="24" height="24" rx="4" fill="#1E1E1E"/>
<rect width="24" height="24" rx="4" fill="url(#paint0_linear_33_20)"/>
<g filter="url(#filter0_d_33_20)">
<path d="M2.74 14.39V14.15C2.74 14.0767 2.73333 14.0067 2.72 13.94C2.75333 13.88 2.75667 13.7 2.73 13.4C2.71667 13.24 2.70333 13.11 2.69 13.01C2.68333 12.91 2.68 12.84 2.68 12.8V12.72C2.68 12.6933 2.68 12.6667 2.68 12.64C2.68667 12.6067 2.69333 12.5733 2.7 12.54C2.70667 12.3867 2.71667 12.2833 2.73 12.23C2.73667 12.21 2.75333 12.1833 2.78 12.15C2.80667 12.11 2.82 12.07 2.82 12.03C2.82 11.73 2.83333 11.41 2.86 11.07C2.89333 10.7233 2.91333 10.4 2.92 10.1C2.92667 9.86667 2.93 9.68 2.93 9.54C2.93 9.4 2.93333 9.31333 2.94 9.28C2.94667 9.19333 2.94667 9.1 2.94 9C2.94 8.89333 2.94 8.79333 2.94 8.7C2.94 8.68 2.93667 8.66667 2.93 8.66L3.19 8.45H4.06C4.15333 8.43667 4.22 8.43333 4.26 8.44C4.3 8.44667 4.32667 8.45667 4.34 8.47L4.56 8.63C4.62 8.70333 4.67 8.74667 4.71 8.76C4.75667 8.76667 4.79333 8.75667 4.82 8.73C4.85333 8.69667 4.88333 8.65667 4.91 8.61C4.93667 8.55667 4.96333 8.50667 4.99 8.46L5.52 8.49L6.31 8.82C6.33667 8.84667 6.36 8.87333 6.38 8.9C6.4 8.92 6.42 8.93667 6.44 8.95C6.47333 8.98333 6.50333 9.01333 6.53 9.04C6.56333 9.06667 6.58667 9.08 6.6 9.08C6.61333 9.08 6.67667 9.09667 6.79 9.13C6.91 9.16333 7.01667 9.25667 7.11 9.41C7.18333 9.41 7.25667 9.43333 7.33 9.48C7.41 9.52667 7.47667 9.58 7.53 9.64C7.58333 9.69333 7.62333 9.74667 7.65 9.8C7.68333 9.84667 7.69333 9.87333 7.68 9.88C7.56667 9.98667 7.53 10.08 7.57 10.16C7.61667 10.24 7.68333 10.2967 7.77 10.33C7.79667 10.4433 7.85 10.5233 7.93 10.57C8.01 10.61 8.07 10.64 8.11 10.66C8.11 10.68 8.11667 10.7833 8.13 10.97C8.14333 11.15 8.16333 11.4133 8.19 11.76C8.20333 11.9333 8.21667 12.0867 8.23 12.22C8.24333 12.3467 8.25667 12.4533 8.27 12.54C8.28333 12.5933 8.29333 12.6433 8.3 12.69C8.30667 12.73 8.31333 12.7667 8.32 12.8C8.32667 12.8333 8.21333 13.0233 7.98 13.37C7.74 13.7033 7.62 13.9267 7.62 14.04H7.09C7.06333 14.04 7.03 14.0533 6.99 14.08C6.95 14.1 6.91 14.1233 6.87 14.15L6.71 14.25C6.69 14.2567 6.67 14.26 6.65 14.26C6.63 14.26 6.60667 14.2633 6.58 14.27C6.54 14.2767 6.48667 14.2833 6.42 14.29C6.36 14.2967 6.29 14.3067 6.21 14.32C6.04333 14.3533 5.90333 14.3733 5.79 14.38C5.67667 14.3867 5.58333 14.3833 5.51 14.37C5.50333 14.2833 5.27667 14.31 4.83 14.45C4.71667 14.4833 4.6 14.5133 4.48 14.54C4.36 14.56 4.25 14.5767 4.15 14.59C4.09 14.6033 4.03 14.6133 3.97 14.62C3.91667 14.6267 3.86333 14.6333 3.81 14.64L3.59 14.59C3.55 14.5967 3.51 14.6067 3.47 14.62C3.43 14.6267 3.40333 14.63 3.39 14.63C3.37 14.63 3.34 14.6233 3.3 14.61C3.26667 14.5967 3.23667 14.59 3.21 14.59C3.19667 14.59 3.16667 14.5933 3.12 14.6C3.08 14.6 3.05333 14.6067 3.04 14.62L2.74 14.39ZM4.68 14.01C4.74667 13.9833 4.81667 13.9467 4.89 13.9C4.97 13.8467 5.03667 13.83 5.09 13.85H5.37C5.38333 13.85 5.41333 13.8333 5.46 13.8C5.50667 13.76 5.54 13.74 5.56 13.74C5.58667 13.74 5.6 13.7533 5.6 13.78C5.6 13.8 5.63667 13.81 5.71 13.81C5.73667 13.81 5.8 13.7967 5.9 13.77C6 13.7367 6.10667 13.6933 6.22 13.64C6.34 13.5867 6.43333 13.5467 6.5 13.52C6.57333 13.4933 6.61667 13.4767 6.63 13.47C6.63667 13.4567 6.64 13.44 6.64 13.42C6.64667 13.4 6.65667 13.3767 6.67 13.35C6.68333 13.31 6.69667 13.2633 6.71 13.21C6.73 13.1567 6.75667 13.0933 6.79 13.02C6.83667 12.86 6.87333 12.7367 6.9 12.65C6.92667 12.5633 6.94 12.5033 6.94 12.47L6.62 11.29C6.62 11.2433 6.62333 11.2067 6.63 11.18C6.63 11.1467 6.63 11.1067 6.63 11.06C6.63667 11.0067 6.64333 10.9433 6.65 10.87C6.67667 10.5833 6.69333 10.44 6.7 10.44C6.69333 10.4333 6.67 10.3967 6.63 10.33C6.59667 10.2633 6.54667 10.1733 6.48 10.06C6.41333 9.94 6.35667 9.81667 6.31 9.69C6.27 9.55667 6.23667 9.49 6.21 9.49L5.42 8.98H4.67C4.67 9.06 4.65333 9.10667 4.62 9.12C4.58667 9.12667 4.57 9.13667 4.57 9.15V9.33C4.57 9.38333 4.57 9.44667 4.57 9.52C4.57 9.59333 4.56667 9.67667 4.56 9.77V10.43C4.44667 10.49 4.38333 10.56 4.37 10.64C4.37 10.7 4.34 10.7933 4.28 10.92C4.26667 10.9333 4.26 10.9567 4.26 10.99C4.26 11.0833 4.26 11.15 4.26 11.19C4.26667 11.2233 4.26 11.2833 4.24 11.37C4.22667 11.3833 4.24 11.5 4.28 11.72C4.32 11.9533 4.34333 12.0733 4.35 12.08C4.34333 12.1133 4.33333 12.16 4.32 12.22C4.31333 12.28 4.3 12.35 4.28 12.43C4.26 12.51 4.24667 12.57 4.24 12.61C4.23333 12.65 4.23 12.6767 4.23 12.69C4.23 12.77 4.24 12.9133 4.26 13.12C4.26667 13.2267 4.27 13.32 4.27 13.4C4.27667 13.4733 4.28 13.5267 4.28 13.56C4.29333 13.6133 4.30333 13.6667 4.31 13.72C4.32333 13.7733 4.33667 13.83 4.35 13.89L4.68 14.01ZM12.7216 8.37L12.8916 8.49L12.9716 8.73C12.9516 8.73667 12.9282 8.74667 12.9016 8.76C12.8549 8.78667 12.7982 8.82333 12.7316 8.87C12.6649 8.91 12.5982 8.95333 12.5316 9C12.4716 9.04 12.4182 9.07667 12.3716 9.11C12.3316 9.13667 12.3082 9.15 12.3016 9.15L12.1816 9.21C12.1282 9.24333 12.0682 9.27333 12.0016 9.3L11.8116 9.4C11.7782 9.41333 11.7482 9.42667 11.7216 9.44C11.7016 9.45333 11.6782 9.46667 11.6516 9.48C11.6316 9.53333 11.5982 9.59333 11.5516 9.66C11.5049 9.72667 11.4549 9.79333 11.4016 9.86C11.3482 9.92667 11.2916 9.98667 11.2316 10.04C11.1782 10.0933 11.1316 10.1367 11.0916 10.17C11.0982 10.19 11.0982 10.2133 11.0916 10.24C11.0916 10.2667 11.0816 10.2933 11.0616 10.32C11.0416 10.3533 11.0216 10.4267 11.0016 10.54C10.9816 10.6467 10.9616 10.7833 10.9416 10.95C10.9216 11.0033 10.8782 11.0467 10.8116 11.08C10.7516 11.1067 10.7116 11.1467 10.6916 11.2C10.6782 11.26 10.6616 11.3267 10.6416 11.4C10.6282 11.4733 10.6482 11.5167 10.7016 11.53C10.7882 11.55 10.8382 11.5667 10.8516 11.58C10.8382 11.6733 10.8249 11.7533 10.8116 11.82C10.8049 11.88 10.7949 11.94 10.7816 12C10.7749 12.06 10.7682 12.1233 10.7616 12.19C10.7549 12.25 10.7482 12.3267 10.7416 12.42C10.7282 12.6133 10.7182 12.7667 10.7116 12.88C10.7116 12.9867 10.7149 13.0533 10.7216 13.08L10.9616 13.88C11.0216 13.8933 11.1016 13.91 11.2016 13.93C11.3082 13.9433 11.4349 13.9667 11.5816 14C11.8682 14.0533 12.0182 14.0633 12.0316 14.03C12.0249 13.9833 12.1849 13.92 12.5116 13.84C12.8449 13.7667 13.0116 13.7067 13.0116 13.66L13.2216 13.68L13.0916 14.22C13.0782 14.2267 13.0616 14.23 13.0416 14.23C13.0282 14.23 13.0149 14.2333 13.0016 14.24C12.9682 14.2467 12.9316 14.2533 12.8916 14.26C12.8582 14.2667 12.8149 14.2767 12.7616 14.29C12.6549 14.31 12.5716 14.3267 12.5116 14.34C12.4516 14.3467 12.4149 14.3533 12.4016 14.36C12.2416 14.38 12.1149 14.4567 12.0216 14.59C11.9082 14.7233 11.8482 14.7733 11.8416 14.74C11.7749 14.7667 11.6982 14.7567 11.6116 14.71C11.5449 14.65 11.4082 14.6433 11.2016 14.69L10.2016 14.57L9.24156 13.91C9.34823 13.83 9.30156 13.5467 9.10156 13.06C9.04823 12.9333 9.00156 12.8233 8.96156 12.73C8.92823 12.6367 8.89823 12.56 8.87156 12.5C8.85823 12.4667 8.8449 12.4367 8.83156 12.41C8.8249 12.3767 8.8149 12.3467 8.80156 12.32C8.7949 12.1867 8.81156 12.0367 8.85156 11.87C8.89823 11.6967 8.93156 11.5333 8.95156 11.38L9.13156 11.26C9.2249 11.2 9.29156 11.14 9.33156 11.08C9.37156 11.02 9.35156 10.9433 9.27156 10.85C9.2849 10.77 9.2949 10.6833 9.30156 10.59C9.3149 10.4967 9.3249 10.4067 9.33156 10.32C9.3449 10.2333 9.3549 10.16 9.36156 10.1C9.36823 10.04 9.37156 10.0067 9.37156 10L9.76156 9.44C9.7749 9.42667 9.81823 9.41 9.89156 9.39C9.9649 9.37 10.0616 9.34333 10.1816 9.31C10.2416 9.29667 10.2849 9.27667 10.3116 9.25C10.3449 9.21667 10.3682 9.18667 10.3816 9.16C10.3949 9.12667 10.4049 9.09667 10.4116 9.07C10.4249 9.04333 10.4382 9.02667 10.4516 9.02L11.8016 8.61C11.9149 8.59 12.0416 8.56 12.1816 8.52C12.3216 8.48 12.4282 8.43333 12.5016 8.38L12.7216 8.37ZM12.3916 12.32C12.3982 12.3133 12.4016 12.3067 12.4016 12.3V12.29C12.3549 12.2167 12.3116 12.1567 12.2716 12.11C12.2316 12.0633 12.2049 12.0267 12.1916 12L12.5416 11.61H12.8316C12.8449 11.61 12.8782 11.6133 12.9316 11.62C12.9916 11.62 13.0716 11.6233 13.1716 11.63C13.3649 11.6433 13.4716 11.61 13.4916 11.53H14.6516C14.7582 11.53 14.8682 11.54 14.9816 11.56C15.0949 11.58 15.1916 11.5967 15.2716 11.61C15.2716 11.6567 15.2616 11.73 15.2416 11.83C15.2216 11.9233 15.2082 12.0067 15.2016 12.08C15.1549 12.1 15.0849 12.12 14.9916 12.14C14.9049 12.16 14.8482 12.18 14.8216 12.2L14.4016 12.17L14.3116 12.4C14.3716 12.44 14.4282 12.46 14.4816 12.46C14.5349 12.4533 14.6049 12.4567 14.6916 12.47C14.6982 12.5233 14.6916 12.6067 14.6716 12.72C14.6516 12.8267 14.6249 12.9667 14.5916 13.14C14.5649 13.3133 14.5349 13.5167 14.5016 13.75C14.4749 13.9833 14.4582 14.25 14.4516 14.55L13.5116 14.72L13.4516 14.42C13.4582 14.3867 13.4616 14.2967 13.4616 14.15C13.4682 13.9967 13.4682 13.78 13.4616 13.5C13.4549 13.36 13.4516 13.23 13.4516 13.11C13.4516 12.99 13.4516 12.88 13.4516 12.78V12.31C13.2982 12.3233 13.1449 12.34 12.9916 12.36C12.8449 12.38 12.7416 12.4 12.6816 12.42L12.5216 12.43L12.3916 12.32ZM19.6259 8.37L19.7959 8.49L19.8759 8.73C19.8559 8.73667 19.8325 8.74667 19.8059 8.76C19.7592 8.78667 19.7025 8.82333 19.6359 8.87C19.5692 8.91 19.5025 8.95333 19.4359 9C19.3759 9.04 19.3225 9.07667 19.2759 9.11C19.2359 9.13667 19.2125 9.15 19.2059 9.15L19.0859 9.21C19.0325 9.24333 18.9725 9.27333 18.9059 9.3L18.7159 9.4C18.6825 9.41333 18.6525 9.42667 18.6259 9.44C18.6059 9.45333 18.5825 9.46667 18.5559 9.48C18.5359 9.53333 18.5025 9.59333 18.4559 9.66C18.4092 9.72667 18.3592 9.79333 18.3059 9.86C18.2525 9.92667 18.1959 9.98667 18.1359 10.04C18.0825 10.0933 18.0359 10.1367 17.9959 10.17C18.0025 10.19 18.0025 10.2133 17.9959 10.24C17.9959 10.2667 17.9859 10.2933 17.9659 10.32C17.9459 10.3533 17.9259 10.4267 17.9059 10.54C17.8859 10.6467 17.8659 10.7833 17.8459 10.95C17.8259 11.0033 17.7825 11.0467 17.7159 11.08C17.6559 11.1067 17.6159 11.1467 17.5959 11.2C17.5825 11.26 17.5659 11.3267 17.5459 11.4C17.5325 11.4733 17.5525 11.5167 17.6059 11.53C17.6925 11.55 17.7425 11.5667 17.7559 11.58C17.7425 11.6733 17.7292 11.7533 17.7159 11.82C17.7092 11.88 17.6992 11.94 17.6859 12C17.6792 12.06 17.6725 12.1233 17.6659 12.19C17.6592 12.25 17.6525 12.3267 17.6459 12.42C17.6325 12.6133 17.6225 12.7667 17.6159 12.88C17.6159 12.9867 17.6192 13.0533 17.6259 13.08L17.8659 13.88C17.9259 13.8933 18.0059 13.91 18.1059 13.93C18.2125 13.9433 18.3392 13.9667 18.4859 14C18.7725 14.0533 18.9225 14.0633 18.9359 14.03C18.9292 13.9833 19.0892 13.92 19.4159 13.84C19.7492 13.7667 19.9159 13.7067 19.9159 13.66L20.1259 13.68L19.9959 14.22C19.9825 14.2267 19.9659 14.23 19.9459 14.23C19.9325 14.23 19.9192 14.2333 19.9059 14.24C19.8725 14.2467 19.8359 14.2533 19.7959 14.26C19.7625 14.2667 19.7192 14.2767 19.6659 14.29C19.5592 14.31 19.4759 14.3267 19.4159 14.34C19.3559 14.3467 19.3192 14.3533 19.3059 14.36C19.1459 14.38 19.0192 14.4567 18.9259 14.59C18.8125 14.7233 18.7525 14.7733 18.7459 14.74C18.6792 14.7667 18.6025 14.7567 18.5159 14.71C18.4492 14.65 18.3125 14.6433 18.1059 14.69L17.1059 14.57L16.1459 13.91C16.2525 13.83 16.2059 13.5467 16.0059 13.06C15.9525 12.9333 15.9059 12.8233 15.8659 12.73C15.8325 12.6367 15.8025 12.56 15.7759 12.5C15.7625 12.4667 15.7492 12.4367 15.7359 12.41C15.7292 12.3767 15.7192 12.3467 15.7059 12.32C15.6992 12.1867 15.7159 12.0367 15.7559 11.87C15.8025 11.6967 15.8359 11.5333 15.8559 11.38L16.0359 11.26C16.1292 11.2 16.1959 11.14 16.2359 11.08C16.2759 11.02 16.2559 10.9433 16.1759 10.85C16.1892 10.77 16.1992 10.6833 16.2059 10.59C16.2192 10.4967 16.2292 10.4067 16.2359 10.32C16.2492 10.2333 16.2592 10.16 16.2659 10.1C16.2725 10.04 16.2759 10.0067 16.2759 10L16.6659 9.44C16.6792 9.42667 16.7225 9.41 16.7959 9.39C16.8692 9.37 16.9659 9.34333 17.0859 9.31C17.1459 9.29667 17.1892 9.27667 17.2159 9.25C17.2492 9.21667 17.2725 9.18667 17.2859 9.16C17.2992 9.12667 17.3092 9.09667 17.3159 9.07C17.3292 9.04333 17.3425 9.02667 17.3559 9.02L18.7059 8.61C18.8192 8.59 18.9459 8.56 19.0859 8.52C19.2259 8.48 19.3325 8.43333 19.4059 8.38L19.6259 8.37ZM19.2959 12.32C19.3025 12.3133 19.3059 12.3067 19.3059 12.3V12.29C19.2592 12.2167 19.2159 12.1567 19.1759 12.11C19.1359 12.0633 19.1092 12.0267 19.0959 12L19.4459 11.61H19.7359C19.7492 11.61 19.7825 11.6133 19.8359 11.62C19.8959 11.62 19.9759 11.6233 20.0759 11.63C20.2692 11.6433 20.3759 11.61 20.3959 11.53H21.5559C21.6625 11.53 21.7725 11.54 21.8859 11.56C21.9992 11.58 22.0959 11.5967 22.1759 11.61C22.1759 11.6567 22.1659 11.73 22.1459 11.83C22.1259 11.9233 22.1125 12.0067 22.1059 12.08C22.0592 12.1 21.9892 12.12 21.8959 12.14C21.8092 12.16 21.7525 12.18 21.7259 12.2L21.3059 12.17L21.2159 12.4C21.2759 12.44 21.3325 12.46 21.3859 12.46C21.4392 12.4533 21.5092 12.4567 21.5959 12.47C21.6025 12.5233 21.5959 12.6067 21.5759 12.72C21.5559 12.8267 21.5292 12.9667 21.4959 13.14C21.4692 13.3133 21.4392 13.5167 21.4059 13.75C21.3792 13.9833 21.3625 14.25 21.3559 14.55L20.4159 14.72L20.3559 14.42C20.3625 14.3867 20.3659 14.2967 20.3659 14.15C20.3725 13.9967 20.3725 13.78 20.3659 13.5C20.3592 13.36 20.3559 13.23 20.3559 13.11C20.3559 12.99 20.3559 12.88 20.3559 12.78V12.31C20.2025 12.3233 20.0492 12.34 19.8959 12.36C19.7492 12.38 19.6459 12.4 19.5859 12.42L19.4259 12.43L19.2959 12.32Z" fill="white"/>
</g>
</g>
<defs>
<filter id="filter0_d_33_20" x="-3.31995" y="2.37" width="31.4958" height="18.42" filterUnits="userSpaceOnUse" color-interpolation-filters="sRGB">
<feFlood flood-opacity="0" result="BackgroundImageFix"/>
<feColorMatrix in="SourceAlpha" type="matrix" values="0 0 0 0 0 0 0 0 0 0 0 0 0 0 0 0 0 0 127 0" result="hardAlpha"/>
<feOffset/>
<feGaussianBlur stdDeviation="3"/>
<feComposite in2="hardAlpha" operator="out"/>
<feColorMatrix type="matrix" values="0 0 0 0 0 0 0 0 0 0 0 0 0 0 0 0 0 0 1 0"/>
<feBlend mode="normal" in2="BackgroundImageFix" result="effect1_dropShadow_33_20"/>
<feBlend mode="normal" in="SourceGraphic" in2="effect1_dropShadow_33_20" result="shape"/>
</filter>
<linearGradient id="paint0_linear_33_20" x1="12" y1="0" x2="12" y2="24" gradientUnits="userSpaceOnUse">
<stop stop-color="#6D6363"/>
<stop offset="1" stop-color="#6D6363" stop-opacity="0"/>
</linearGradient>
<clipPath id="clip0_33_20">
<rect width="24" height="24" rx="4" fill="white"/>
</clipPath>
</defs>
</svg>
