<svg width="32" height="32" viewBox="0 0 32 32" fill="none" xmlns="http://www.w3.org/2000/svg">
<g clip-path="url(#clip0_33_18)">
<rect width="32" height="32" rx="6" fill="#1E1E1E"/>
<rect width="32" height="32" rx="6" fill="url(#paint0_linear_33_18)"/>
<g filter="url(#filter0_d_33_18)">
<path d="M4.888 19.268V18.98C4.888 18.892 4.88 18.808 4.864 18.728C4.904 18.656 4.908 18.44 4.876 18.08C4.86 17.888 4.844 17.732 4.828 17.612C4.82 17.492 4.816 17.408 4.816 17.36V17.264C4.816 17.232 4.816 17.2 4.816 17.168C4.824 17.128 4.832 17.088 4.84 17.048C4.848 16.864 4.86 16.74 4.876 16.676C4.884 16.652 4.904 16.62 4.936 16.58C4.968 16.532 4.984 16.484 4.984 16.436C4.984 16.076 5 15.692 5.032 15.284C5.072 14.868 5.096 14.48 5.104 14.12C5.112 13.84 5.116 13.616 5.116 13.448C5.116 13.28 5.12 13.176 5.128 13.136C5.136 13.032 5.136 12.92 5.128 12.8C5.128 12.672 5.128 12.552 5.128 12.44C5.128 12.416 5.124 12.4 5.116 12.392L5.428 12.14H6.472C6.584 12.124 6.664 12.12 6.712 12.128C6.76 12.136 6.792 12.148 6.808 12.164L7.072 12.356C7.144 12.444 7.204 12.496 7.252 12.512C7.308 12.52 7.352 12.508 7.384 12.476C7.424 12.436 7.46 12.388 7.492 12.332C7.524 12.268 7.556 12.208 7.588 12.152L8.224 12.188L9.172 12.584C9.204 12.616 9.232 12.648 9.256 12.68C9.28 12.704 9.304 12.724 9.328 12.74C9.368 12.78 9.404 12.816 9.436 12.848C9.476 12.88 9.504 12.896 9.52 12.896C9.536 12.896 9.612 12.916 9.748 12.956C9.892 12.996 10.02 13.108 10.132 13.292C10.22 13.292 10.308 13.32 10.396 13.376C10.492 13.432 10.572 13.496 10.636 13.568C10.7 13.632 10.748 13.696 10.78 13.76C10.82 13.816 10.832 13.848 10.816 13.856C10.68 13.984 10.636 14.096 10.684 14.192C10.74 14.288 10.82 14.356 10.924 14.396C10.956 14.532 11.02 14.628 11.116 14.684C11.212 14.732 11.284 14.768 11.332 14.792C11.332 14.816 11.34 14.94 11.356 15.164C11.372 15.38 11.396 15.696 11.428 16.112C11.444 16.32 11.46 16.504 11.476 16.664C11.492 16.816 11.508 16.944 11.524 17.048C11.54 17.112 11.552 17.172 11.56 17.228C11.568 17.276 11.576 17.32 11.584 17.36C11.592 17.4 11.456 17.628 11.176 18.044C10.888 18.444 10.744 18.712 10.744 18.848H10.108C10.076 18.848 10.036 18.864 9.988 18.896C9.94 18.92 9.892 18.948 9.844 18.98L9.652 19.1C9.628 19.108 9.604 19.112 9.58 19.112C9.556 19.112 9.528 19.116 9.496 19.124C9.448 19.132 9.384 19.14 9.304 19.148C9.232 19.156 9.148 19.168 9.052 19.184C8.852 19.224 8.684 19.248 8.548 19.256C8.412 19.264 8.3 19.26 8.212 19.244C8.204 19.14 7.932 19.172 7.396 19.34C7.26 19.38 7.12 19.416 6.976 19.448C6.832 19.472 6.7 19.492 6.58 19.508C6.508 19.524 6.436 19.536 6.364 19.544C6.3 19.552 6.236 19.56 6.172 19.568L5.908 19.508C5.86 19.516 5.812 19.528 5.764 19.544C5.716 19.552 5.684 19.556 5.668 19.556C5.644 19.556 5.608 19.548 5.56 19.532C5.52 19.516 5.484 19.508 5.452 19.508C5.436 19.508 5.4 19.512 5.344 19.52C5.296 19.52 5.264 19.528 5.248 19.544L4.888 19.268ZM7.216 18.812C7.296 18.78 7.38 18.736 7.468 18.68C7.564 18.616 7.644 18.596 7.708 18.62H8.044C8.06 18.62 8.096 18.6 8.152 18.56C8.208 18.512 8.248 18.488 8.272 18.488C8.304 18.488 8.32 18.504 8.32 18.536C8.32 18.56 8.364 18.572 8.452 18.572C8.484 18.572 8.56 18.556 8.68 18.524C8.8 18.484 8.928 18.432 9.064 18.368C9.208 18.304 9.32 18.256 9.4 18.224C9.488 18.192 9.54 18.172 9.556 18.164C9.564 18.148 9.568 18.128 9.568 18.104C9.576 18.08 9.588 18.052 9.604 18.02C9.62 17.972 9.636 17.916 9.652 17.852C9.676 17.788 9.708 17.712 9.748 17.624C9.804 17.432 9.848 17.284 9.88 17.18C9.912 17.076 9.928 17.004 9.928 16.964L9.544 15.548C9.544 15.492 9.548 15.448 9.556 15.416C9.556 15.376 9.556 15.328 9.556 15.272C9.564 15.208 9.572 15.132 9.58 15.044C9.612 14.7 9.632 14.528 9.64 14.528C9.632 14.52 9.604 14.476 9.556 14.396C9.516 14.316 9.456 14.208 9.376 14.072C9.296 13.928 9.228 13.78 9.172 13.628C9.124 13.468 9.084 13.388 9.052 13.388L8.104 12.776H7.204C7.204 12.872 7.184 12.928 7.144 12.944C7.104 12.952 7.084 12.964 7.084 12.98V13.196C7.084 13.26 7.084 13.336 7.084 13.424C7.084 13.512 7.08 13.612 7.072 13.724V14.516C6.936 14.588 6.86 14.672 6.844 14.768C6.844 14.84 6.808 14.952 6.736 15.104C6.72 15.12 6.712 15.148 6.712 15.188C6.712 15.3 6.712 15.38 6.712 15.428C6.72 15.468 6.712 15.54 6.688 15.644C6.672 15.66 6.688 15.8 6.736 16.064C6.784 16.344 6.812 16.488 6.82 16.496C6.812 16.536 6.8 16.592 6.784 16.664C6.776 16.736 6.76 16.82 6.736 16.916C6.712 17.012 6.696 17.084 6.688 17.132C6.68 17.18 6.676 17.212 6.676 17.228C6.676 17.324 6.688 17.496 6.712 17.744C6.72 17.872 6.724 17.984 6.724 18.08C6.732 18.168 6.736 18.232 6.736 18.272C6.752 18.336 6.764 18.4 6.772 18.464C6.788 18.528 6.804 18.596 6.82 18.668L7.216 18.812ZM16.8659 12.044L17.0699 12.188L17.1659 12.476C17.1419 12.484 17.1139 12.496 17.0819 12.512C17.0259 12.544 16.9579 12.588 16.8779 12.644C16.7979 12.692 16.7179 12.744 16.6379 12.8C16.5659 12.848 16.5019 12.892 16.4459 12.932C16.3979 12.964 16.3699 12.98 16.3619 12.98L16.2179 13.052C16.1539 13.092 16.0819 13.128 16.0019 13.16L15.7739 13.28C15.7339 13.296 15.6979 13.312 15.6659 13.328C15.6419 13.344 15.6139 13.36 15.5819 13.376C15.5579 13.44 15.5179 13.512 15.4619 13.592C15.4059 13.672 15.3459 13.752 15.2819 13.832C15.2179 13.912 15.1499 13.984 15.0779 14.048C15.0139 14.112 14.9579 14.164 14.9099 14.204C14.9179 14.228 14.9179 14.256 14.9099 14.288C14.9099 14.32 14.8979 14.352 14.8739 14.384C14.8499 14.424 14.8259 14.512 14.8019 14.648C14.7779 14.776 14.7539 14.94 14.7299 15.14C14.7059 15.204 14.6539 15.256 14.5739 15.296C14.5019 15.328 14.4539 15.376 14.4299 15.44C14.4139 15.512 14.3939 15.592 14.3699 15.68C14.3539 15.768 14.3779 15.82 14.4419 15.836C14.5459 15.86 14.6059 15.88 14.6219 15.896C14.6059 16.008 14.5899 16.104 14.5739 16.184C14.5659 16.256 14.5539 16.328 14.5379 16.4C14.5299 16.472 14.5219 16.548 14.5139 16.628C14.5059 16.7 14.4979 16.792 14.4899 16.904C14.4739 17.136 14.4619 17.32 14.4539 17.456C14.4539 17.584 14.4579 17.664 14.4659 17.696L14.7539 18.656C14.8259 18.672 14.9219 18.692 15.0419 18.716C15.1699 18.732 15.3219 18.76 15.4979 18.8C15.8419 18.864 16.0219 18.876 16.0379 18.836C16.0299 18.78 16.2219 18.704 16.6139 18.608C17.0139 18.52 17.2139 18.448 17.2139 18.392L17.4659 18.416L17.3099 19.064C17.2939 19.072 17.2739 19.076 17.2499 19.076C17.2339 19.076 17.2179 19.08 17.2019 19.088C17.1619 19.096 17.1179 19.104 17.0699 19.112C17.0299 19.12 16.9779 19.132 16.9139 19.148C16.7859 19.172 16.6859 19.192 16.6139 19.208C16.5419 19.216 16.4979 19.224 16.4819 19.232C16.2899 19.256 16.1379 19.348 16.0259 19.508C15.8899 19.668 15.8179 19.728 15.8099 19.688C15.7299 19.72 15.6379 19.708 15.5339 19.652C15.4539 19.58 15.2899 19.572 15.0419 19.628L13.8419 19.484L12.6899 18.692C12.8179 18.596 12.7619 18.256 12.5219 17.672C12.4579 17.52 12.4019 17.388 12.3539 17.276C12.3139 17.164 12.2779 17.072 12.2459 17C12.2299 16.96 12.2139 16.924 12.1979 16.892C12.1899 16.852 12.1779 16.816 12.1619 16.784C12.1539 16.624 12.1739 16.444 12.2219 16.244C12.2779 16.036 12.3179 15.84 12.3419 15.656L12.5579 15.512C12.6699 15.44 12.7499 15.368 12.7979 15.296C12.8459 15.224 12.8219 15.132 12.7259 15.02C12.7419 14.924 12.7539 14.82 12.7619 14.708C12.7779 14.596 12.7899 14.488 12.7979 14.384C12.8139 14.28 12.8259 14.192 12.8339 14.12C12.8419 14.048 12.8459 14.008 12.8459 14L13.3139 13.328C13.3299 13.312 13.3819 13.292 13.4699 13.268C13.5579 13.244 13.6739 13.212 13.8179 13.172C13.8899 13.156 13.9419 13.132 13.9739 13.1C14.0139 13.06 14.0419 13.024 14.0579 12.992C14.0739 12.952 14.0859 12.916 14.0939 12.884C14.1099 12.852 14.1259 12.832 14.1419 12.824L15.7619 12.332C15.8979 12.308 16.0499 12.272 16.2179 12.224C16.3859 12.176 16.5139 12.12 16.6019 12.056L16.8659 12.044ZM16.4699 16.784C16.4779 16.776 16.4819 16.768 16.4819 16.76V16.748C16.4259 16.66 16.3739 16.588 16.3259 16.532C16.2779 16.476 16.2459 16.432 16.2299 16.4L16.6499 15.932H16.9979C17.0139 15.932 17.0539 15.936 17.1179 15.944C17.1899 15.944 17.2859 15.948 17.4059 15.956C17.6379 15.972 17.7659 15.932 17.7899 15.836H19.1819C19.3099 15.836 19.4419 15.848 19.5779 15.872C19.7139 15.896 19.8299 15.916 19.9259 15.932C19.9259 15.988 19.9139 16.076 19.8899 16.196C19.8659 16.308 19.8499 16.408 19.8419 16.496C19.7859 16.52 19.7019 16.544 19.5899 16.568C19.4859 16.592 19.4179 16.616 19.3859 16.64L18.8819 16.604L18.7739 16.88C18.8459 16.928 18.9139 16.952 18.9779 16.952C19.0419 16.944 19.1259 16.948 19.2299 16.964C19.2379 17.028 19.2299 17.128 19.2059 17.264C19.1819 17.392 19.1499 17.56 19.1099 17.768C19.0779 17.976 19.0419 18.22 19.0019 18.5C18.9699 18.78 18.9499 19.1 18.9419 19.46L17.8139 19.664L17.7419 19.304C17.7499 19.264 17.7539 19.156 17.7539 18.98C17.7619 18.796 17.7619 18.536 17.7539 18.2C17.7459 18.032 17.7419 17.876 17.7419 17.732C17.7419 17.588 17.7419 17.456 17.7419 17.336V16.772C17.5579 16.788 17.3739 16.808 17.1899 16.832C17.0139 16.856 16.8899 16.88 16.8179 16.904L16.6259 16.916L16.4699 16.784ZM25.151 12.044L25.355 12.188L25.451 12.476C25.427 12.484 25.399 12.496 25.367 12.512C25.311 12.544 25.243 12.588 25.163 12.644C25.083 12.692 25.003 12.744 24.923 12.8C24.851 12.848 24.787 12.892 24.731 12.932C24.683 12.964 24.655 12.98 24.647 12.98L24.503 13.052C24.439 13.092 24.367 13.128 24.287 13.16L24.059 13.28C24.019 13.296 23.983 13.312 23.951 13.328C23.927 13.344 23.899 13.36 23.867 13.376C23.843 13.44 23.803 13.512 23.747 13.592C23.691 13.672 23.631 13.752 23.567 13.832C23.503 13.912 23.435 13.984 23.363 14.048C23.299 14.112 23.243 14.164 23.195 14.204C23.203 14.228 23.203 14.256 23.195 14.288C23.195 14.32 23.183 14.352 23.159 14.384C23.135 14.424 23.111 14.512 23.087 14.648C23.063 14.776 23.039 14.94 23.015 15.14C22.991 15.204 22.939 15.256 22.859 15.296C22.787 15.328 22.739 15.376 22.715 15.44C22.699 15.512 22.679 15.592 22.655 15.68C22.639 15.768 22.663 15.82 22.727 15.836C22.831 15.86 22.891 15.88 22.907 15.896C22.891 16.008 22.875 16.104 22.859 16.184C22.851 16.256 22.839 16.328 22.823 16.4C22.815 16.472 22.807 16.548 22.799 16.628C22.791 16.7 22.783 16.792 22.775 16.904C22.759 17.136 22.747 17.32 22.739 17.456C22.739 17.584 22.743 17.664 22.751 17.696L23.039 18.656C23.111 18.672 23.207 18.692 23.327 18.716C23.455 18.732 23.607 18.76 23.783 18.8C24.127 18.864 24.307 18.876 24.323 18.836C24.315 18.78 24.507 18.704 24.899 18.608C25.299 18.52 25.499 18.448 25.499 18.392L25.751 18.416L25.595 19.064C25.579 19.072 25.559 19.076 25.535 19.076C25.519 19.076 25.503 19.08 25.487 19.088C25.447 19.096 25.403 19.104 25.355 19.112C25.315 19.12 25.263 19.132 25.199 19.148C25.071 19.172 24.971 19.192 24.899 19.208C24.827 19.216 24.783 19.224 24.767 19.232C24.575 19.256 24.423 19.348 24.311 19.508C24.175 19.668 24.103 19.728 24.095 19.688C24.015 19.72 23.923 19.708 23.819 19.652C23.739 19.58 23.575 19.572 23.327 19.628L22.127 19.484L20.975 18.692C21.103 18.596 21.047 18.256 20.807 17.672C20.743 17.52 20.687 17.388 20.639 17.276C20.599 17.164 20.563 17.072 20.531 17C20.515 16.96 20.499 16.924 20.483 16.892C20.475 16.852 20.463 16.816 20.447 16.784C20.439 16.624 20.459 16.444 20.507 16.244C20.563 16.036 20.603 15.84 20.627 15.656L20.843 15.512C20.955 15.44 21.035 15.368 21.083 15.296C21.131 15.224 21.107 15.132 21.011 15.02C21.027 14.924 21.039 14.82 21.047 14.708C21.063 14.596 21.075 14.488 21.083 14.384C21.099 14.28 21.111 14.192 21.119 14.12C21.127 14.048 21.131 14.008 21.131 14L21.599 13.328C21.615 13.312 21.667 13.292 21.755 13.268C21.843 13.244 21.959 13.212 22.103 13.172C22.175 13.156 22.227 13.132 22.259 13.1C22.299 13.06 22.327 13.024 22.343 12.992C22.359 12.952 22.371 12.916 22.379 12.884C22.395 12.852 22.411 12.832 22.427 12.824L24.047 12.332C24.183 12.308 24.335 12.272 24.503 12.224C24.671 12.176 24.799 12.12 24.887 12.056L25.151 12.044ZM24.755 16.784C24.763 16.776 24.767 16.768 24.767 16.76V16.748C24.711 16.66 24.659 16.588 24.611 16.532C24.563 16.476 24.531 16.432 24.515 16.4L24.935 15.932H25.283C25.299 15.932 25.339 15.936 25.403 15.944C25.475 15.944 25.571 15.948 25.691 15.956C25.923 15.972 26.051 15.932 26.075 15.836H27.467C27.595 15.836 27.727 15.848 27.863 15.872C27.999 15.896 28.115 15.916 28.211 15.932C28.211 15.988 28.199 16.076 28.175 16.196C28.151 16.308 28.135 16.408 28.127 16.496C28.071 16.52 27.987 16.544 27.875 16.568C27.771 16.592 27.703 16.616 27.671 16.64L27.167 16.604L27.059 16.88C27.131 16.928 27.199 16.952 27.263 16.952C27.327 16.944 27.411 16.948 27.515 16.964C27.523 17.028 27.515 17.128 27.491 17.264C27.467 17.392 27.435 17.56 27.395 17.768C27.363 17.976 27.327 18.22 27.287 18.5C27.255 18.78 27.235 19.1 27.227 19.46L26.099 19.664L26.027 19.304C26.035 19.264 26.039 19.156 26.039 18.98C26.047 18.796 26.047 18.536 26.039 18.2C26.031 18.032 26.027 17.876 26.027 17.732C26.027 17.588 26.027 17.456 26.027 17.336V16.772C25.843 16.788 25.659 16.808 25.475 16.832C25.299 16.856 25.175 16.88 25.103 16.904L24.911 16.916L24.755 16.784Z" fill="white"/>
</g>
</g>
<defs>
<filter id="filter0_d_33_18" x="-1.18396" y="6.04401" width="35.395" height="19.704" filterUnits="userSpaceOnUse" color-interpolation-filters="sRGB">
<feFlood flood-opacity="0" result="BackgroundImageFix"/>
<feColorMatrix in="SourceAlpha" type="matrix" values="0 0 0 0 0 0 0 0 0 0 0 0 0 0 0 0 0 0 127 0" result="hardAlpha"/>
<feOffset/>
<feGaussianBlur stdDeviation="3"/>
<feComposite in2="hardAlpha" operator="out"/>
<feColorMatrix type="matrix" values="0 0 0 0 0 0 0 0 0 0 0 0 0 0 0 0 0 0 1 0"/>
<feBlend mode="normal" in2="BackgroundImageFix" result="effect1_dropShadow_33_18"/>
<feBlend mode="normal" in="SourceGraphic" in2="effect1_dropShadow_33_18" result="shape"/>
</filter>
<linearGradient id="paint0_linear_33_18" x1="16" y1="0" x2="16" y2="32" gradientUnits="userSpaceOnUse">
<stop stop-color="#6D6363"/>
<stop offset="1" stop-color="#6D6363" stop-opacity="0"/>
</linearGradient>
<clipPath id="clip0_33_18">
<rect width="32" height="32" rx="6" fill="white"/>
</clipPath>
</defs>
</svg>
