<svg width="512" height="512" viewBox="0 0 512 512" fill="none" xmlns="http://www.w3.org/2000/svg">
<rect width="512" height="512" rx="96" fill="#1E1E1E"/>
<rect width="512" height="512" rx="96" fill="url(#paint0_linear_33_26)"/>
<g filter="url(#filter0_d_33_26)">
<path d="M134.472 286.192V283.12C134.472 282.181 134.387 281.285 134.216 280.432C134.643 279.664 134.685 277.36 134.344 273.52C134.173 271.472 134.003 269.808 133.832 268.528C133.747 267.248 133.704 266.352 133.704 265.84V264.816C133.704 264.475 133.704 264.133 133.704 263.792C133.789 263.365 133.875 262.939 133.96 262.512C134.045 260.549 134.173 259.227 134.344 258.544C134.429 258.288 134.643 257.947 134.984 257.52C135.325 257.008 135.496 256.496 135.496 255.984C135.496 252.144 135.667 248.048 136.008 243.696C136.435 239.259 136.691 235.12 136.776 231.28C136.861 228.293 136.904 225.904 136.904 224.112C136.904 222.32 136.947 221.211 137.032 220.784C137.117 219.675 137.117 218.48 137.032 217.2C137.032 215.835 137.032 214.555 137.032 213.36C137.032 213.104 136.989 212.933 136.904 212.848L140.232 210.16H151.368C152.563 209.989 153.416 209.947 153.928 210.032C154.44 210.117 154.781 210.245 154.952 210.416L157.768 212.464C158.536 213.403 159.176 213.957 159.688 214.128C160.285 214.213 160.755 214.085 161.096 213.744C161.523 213.317 161.907 212.805 162.248 212.208C162.589 211.525 162.931 210.885 163.272 210.288L170.056 210.672L180.168 214.896C180.509 215.237 180.808 215.579 181.064 215.92C181.32 216.176 181.576 216.389 181.832 216.56C182.259 216.987 182.643 217.371 182.984 217.712C183.411 218.053 183.709 218.224 183.88 218.224C184.051 218.224 184.861 218.437 186.312 218.864C187.848 219.291 189.213 220.485 190.408 222.448C191.347 222.448 192.285 222.747 193.224 223.344C194.248 223.941 195.101 224.624 195.784 225.392C196.467 226.075 196.979 226.757 197.32 227.44C197.747 228.037 197.875 228.379 197.704 228.464C196.253 229.829 195.784 231.024 196.296 232.048C196.893 233.072 197.747 233.797 198.856 234.224C199.197 235.675 199.88 236.699 200.904 237.296C201.928 237.808 202.696 238.192 203.208 238.448C203.208 238.704 203.293 240.027 203.464 242.416C203.635 244.72 203.891 248.091 204.232 252.528C204.403 254.747 204.573 256.709 204.744 258.416C204.915 260.037 205.085 261.403 205.256 262.512C205.427 263.195 205.555 263.835 205.64 264.432C205.725 264.944 205.811 265.413 205.896 265.84C205.981 266.267 204.531 268.699 201.544 273.136C198.472 277.403 196.936 280.261 196.936 281.712H190.152C189.811 281.712 189.384 281.883 188.872 282.224C188.36 282.48 187.848 282.779 187.336 283.12L185.288 284.4C185.032 284.485 184.776 284.528 184.52 284.528C184.264 284.528 183.965 284.571 183.624 284.656C183.112 284.741 182.429 284.827 181.576 284.912C180.808 284.997 179.912 285.125 178.888 285.296C176.755 285.723 174.963 285.979 173.512 286.064C172.061 286.149 170.867 286.107 169.928 285.936C169.843 284.827 166.941 285.168 161.224 286.96C159.773 287.387 158.28 287.771 156.744 288.112C155.208 288.368 153.8 288.581 152.52 288.752C151.752 288.923 150.984 289.051 150.216 289.136C149.533 289.221 148.851 289.307 148.168 289.392L145.352 288.752C144.84 288.837 144.328 288.965 143.816 289.136C143.304 289.221 142.963 289.264 142.792 289.264C142.536 289.264 142.152 289.179 141.64 289.008C141.213 288.837 140.829 288.752 140.488 288.752C140.317 288.752 139.933 288.795 139.336 288.88C138.824 288.88 138.483 288.965 138.312 289.136L134.472 286.192ZM159.304 281.328C160.157 280.987 161.053 280.517 161.992 279.92C163.016 279.237 163.869 279.024 164.552 279.28H168.136C168.307 279.28 168.691 279.067 169.288 278.64C169.885 278.128 170.312 277.872 170.568 277.872C170.909 277.872 171.08 278.043 171.08 278.384C171.08 278.64 171.549 278.768 172.488 278.768C172.829 278.768 173.64 278.597 174.92 278.256C176.2 277.829 177.565 277.275 179.016 276.592C180.552 275.909 181.747 275.397 182.6 275.056C183.539 274.715 184.093 274.501 184.264 274.416C184.349 274.245 184.392 274.032 184.392 273.776C184.477 273.52 184.605 273.221 184.776 272.88C184.947 272.368 185.117 271.771 185.288 271.088C185.544 270.405 185.885 269.595 186.312 268.656C186.909 266.608 187.379 265.029 187.72 263.92C188.061 262.811 188.232 262.043 188.232 261.616L184.136 246.512C184.136 245.915 184.179 245.445 184.264 245.104C184.264 244.677 184.264 244.165 184.264 243.568C184.349 242.885 184.435 242.075 184.52 241.136C184.861 237.467 185.075 235.632 185.16 235.632C185.075 235.547 184.776 235.077 184.264 234.224C183.837 233.371 183.197 232.219 182.344 230.768C181.491 229.232 180.765 227.653 180.168 226.032C179.656 224.325 179.229 223.472 178.888 223.472L168.776 216.944H159.176C159.176 217.968 158.963 218.565 158.536 218.736C158.109 218.821 157.896 218.949 157.896 219.12V221.424C157.896 222.107 157.896 222.917 157.896 223.856C157.896 224.795 157.853 225.861 157.768 227.056V235.504C156.317 236.272 155.507 237.168 155.336 238.192C155.336 238.96 154.952 240.155 154.184 241.776C154.013 241.947 153.928 242.245 153.928 242.672C153.928 243.867 153.928 244.72 153.928 245.232C154.013 245.659 153.928 246.427 153.672 247.536C153.501 247.707 153.672 249.2 154.184 252.016C154.696 255.003 154.995 256.539 155.08 256.624C154.995 257.051 154.867 257.648 154.696 258.416C154.611 259.184 154.44 260.08 154.184 261.104C153.928 262.128 153.757 262.896 153.672 263.408C153.587 263.92 153.544 264.261 153.544 264.432C153.544 265.456 153.672 267.291 153.928 269.936C154.013 271.301 154.056 272.496 154.056 273.52C154.141 274.459 154.184 275.141 154.184 275.568C154.355 276.251 154.483 276.933 154.568 277.616C154.739 278.299 154.909 279.024 155.08 279.792L159.304 281.328ZM262.236 209.136L264.412 210.672L265.436 213.744C265.18 213.829 264.881 213.957 264.54 214.128C263.943 214.469 263.217 214.939 262.364 215.536C261.511 216.048 260.657 216.603 259.804 217.2C259.036 217.712 258.353 218.181 257.756 218.608C257.244 218.949 256.945 219.12 256.86 219.12L255.324 219.888C254.641 220.315 253.873 220.699 253.02 221.04L250.588 222.32C250.161 222.491 249.777 222.661 249.436 222.832C249.18 223.003 248.881 223.173 248.54 223.344C248.284 224.027 247.857 224.795 247.26 225.648C246.663 226.501 246.023 227.355 245.34 228.208C244.657 229.061 243.932 229.829 243.164 230.512C242.481 231.195 241.884 231.749 241.372 232.176C241.457 232.432 241.457 232.731 241.372 233.072C241.372 233.413 241.244 233.755 240.988 234.096C240.732 234.523 240.476 235.461 240.22 236.912C239.964 238.277 239.708 240.027 239.452 242.16C239.196 242.843 238.641 243.397 237.788 243.824C237.02 244.165 236.508 244.677 236.252 245.36C236.081 246.128 235.868 246.981 235.612 247.92C235.441 248.859 235.697 249.413 236.38 249.584C237.489 249.84 238.129 250.053 238.3 250.224C238.129 251.419 237.959 252.443 237.788 253.296C237.703 254.064 237.575 254.832 237.404 255.6C237.319 256.368 237.233 257.179 237.148 258.032C237.063 258.8 236.977 259.781 236.892 260.976C236.721 263.451 236.593 265.413 236.508 266.864C236.508 268.229 236.551 269.083 236.636 269.424L239.708 279.664C240.476 279.835 241.5 280.048 242.78 280.304C244.145 280.475 245.767 280.773 247.644 281.2C251.313 281.883 253.233 282.011 253.404 281.584C253.319 280.987 255.367 280.176 259.548 279.152C263.815 278.213 265.948 277.445 265.948 276.848L268.636 277.104L266.972 284.016C266.801 284.101 266.588 284.144 266.332 284.144C266.161 284.144 265.991 284.187 265.82 284.272C265.393 284.357 264.924 284.443 264.412 284.528C263.985 284.613 263.431 284.741 262.748 284.912C261.383 285.168 260.316 285.381 259.548 285.552C258.78 285.637 258.311 285.723 258.14 285.808C256.092 286.064 254.471 287.045 253.276 288.752C251.825 290.459 251.057 291.099 250.972 290.672C250.119 291.013 249.137 290.885 248.028 290.288C247.175 289.52 245.425 289.435 242.78 290.032L229.98 288.496L217.692 280.048C219.057 279.024 218.46 275.397 215.9 269.168C215.217 267.547 214.62 266.139 214.108 264.944C213.681 263.749 213.297 262.768 212.956 262C212.785 261.573 212.615 261.189 212.444 260.848C212.359 260.421 212.231 260.037 212.06 259.696C211.975 257.989 212.188 256.069 212.7 253.936C213.297 251.717 213.724 249.627 213.98 247.664L216.284 246.128C217.479 245.36 218.332 244.592 218.844 243.824C219.356 243.056 219.1 242.075 218.076 240.88C218.247 239.856 218.375 238.747 218.46 237.552C218.631 236.357 218.759 235.205 218.844 234.096C219.015 232.987 219.143 232.048 219.228 231.28C219.313 230.512 219.356 230.085 219.356 230L224.348 222.832C224.519 222.661 225.073 222.448 226.012 222.192C226.951 221.936 228.188 221.595 229.724 221.168C230.492 220.997 231.047 220.741 231.388 220.4C231.815 219.973 232.113 219.589 232.284 219.248C232.455 218.821 232.583 218.437 232.668 218.096C232.839 217.755 233.009 217.541 233.18 217.456L250.46 212.208C251.911 211.952 253.532 211.568 255.324 211.056C257.116 210.544 258.481 209.947 259.42 209.264L262.236 209.136ZM258.012 259.696C258.097 259.611 258.14 259.525 258.14 259.44V259.312C257.543 258.373 256.988 257.605 256.476 257.008C255.964 256.411 255.623 255.941 255.452 255.6L259.932 250.608H263.644C263.815 250.608 264.241 250.651 264.924 250.736C265.692 250.736 266.716 250.779 267.996 250.864C270.471 251.035 271.836 250.608 272.092 249.584H286.94C288.305 249.584 289.713 249.712 291.164 249.968C292.615 250.224 293.852 250.437 294.876 250.608C294.876 251.205 294.748 252.144 294.492 253.424C294.236 254.619 294.065 255.685 293.98 256.624C293.383 256.88 292.487 257.136 291.292 257.392C290.183 257.648 289.457 257.904 289.116 258.16L283.74 257.776L282.588 260.72C283.356 261.232 284.081 261.488 284.764 261.488C285.447 261.403 286.343 261.445 287.452 261.616C287.537 262.299 287.452 263.365 287.196 264.816C286.94 266.181 286.599 267.973 286.172 270.192C285.831 272.411 285.447 275.013 285.02 278C284.679 280.987 284.465 284.4 284.38 288.24L272.348 290.416L271.58 286.576C271.665 286.149 271.708 284.997 271.708 283.12C271.793 281.157 271.793 278.384 271.708 274.8C271.623 273.008 271.58 271.344 271.58 269.808C271.58 268.272 271.58 266.864 271.58 265.584V259.568C269.617 259.739 267.655 259.952 265.692 260.208C263.815 260.464 262.492 260.72 261.724 260.976L259.676 261.104L258.012 259.696ZM350.611 209.136L352.787 210.672L353.811 213.744C353.555 213.829 353.256 213.957 352.915 214.128C352.318 214.469 351.592 214.939 350.739 215.536C349.886 216.048 349.032 216.603 348.179 217.2C347.411 217.712 346.728 218.181 346.131 218.608C345.619 218.949 345.32 219.12 345.235 219.12L343.699 219.888C343.016 220.315 342.248 220.699 341.395 221.04L338.963 222.32C338.536 222.491 338.152 222.661 337.811 222.832C337.555 223.003 337.256 223.173 336.915 223.344C336.659 224.027 336.232 224.795 335.635 225.648C335.038 226.501 334.398 227.355 333.715 228.208C333.032 229.061 332.307 229.829 331.539 230.512C330.856 231.195 330.259 231.749 329.747 232.176C329.832 232.432 329.832 232.731 329.747 233.072C329.747 233.413 329.619 233.755 329.363 234.096C329.107 234.523 328.851 235.461 328.595 236.912C328.339 238.277 328.083 240.027 327.827 242.16C327.571 242.843 327.016 243.397 326.163 243.824C325.395 244.165 324.883 244.677 324.627 245.36C324.456 246.128 324.243 246.981 323.987 247.92C323.816 248.859 324.072 249.413 324.755 249.584C325.864 249.84 326.504 250.053 326.675 250.224C326.504 251.419 326.334 252.443 326.163 253.296C326.078 254.064 325.95 254.832 325.779 255.6C325.694 256.368 325.608 257.179 325.523 258.032C325.438 258.8 325.352 259.781 325.267 260.976C325.096 263.451 324.968 265.413 324.883 266.864C324.883 268.229 324.926 269.083 325.011 269.424L328.083 279.664C328.851 279.835 329.875 280.048 331.155 280.304C332.52 280.475 334.142 280.773 336.019 281.2C339.688 281.883 341.608 282.011 341.779 281.584C341.694 280.987 343.742 280.176 347.923 279.152C352.19 278.213 354.323 277.445 354.323 276.848L357.011 277.104L355.347 284.016C355.176 284.101 354.963 284.144 354.707 284.144C354.536 284.144 354.366 284.187 354.195 284.272C353.768 284.357 353.299 284.443 352.787 284.528C352.36 284.613 351.806 284.741 351.123 284.912C349.758 285.168 348.691 285.381 347.923 285.552C347.155 285.637 346.686 285.723 346.515 285.808C344.467 286.064 342.846 287.045 341.651 288.752C340.2 290.459 339.432 291.099 339.347 290.672C338.494 291.013 337.512 290.885 336.403 290.288C335.55 289.52 333.8 289.435 331.155 290.032L318.355 288.496L306.067 280.048C307.432 279.024 306.835 275.397 304.275 269.168C303.592 267.547 302.995 266.139 302.483 264.944C302.056 263.749 301.672 262.768 301.331 262C301.16 261.573 300.99 261.189 300.819 260.848C300.734 260.421 300.606 260.037 300.435 259.696C300.35 257.989 300.563 256.069 301.075 253.936C301.672 251.717 302.099 249.627 302.355 247.664L304.659 246.128C305.854 245.36 306.707 244.592 307.219 243.824C307.731 243.056 307.475 242.075 306.451 240.88C306.622 239.856 306.75 238.747 306.835 237.552C307.006 236.357 307.134 235.205 307.219 234.096C307.39 232.987 307.518 232.048 307.603 231.28C307.688 230.512 307.731 230.085 307.731 230L312.723 222.832C312.894 222.661 313.448 222.448 314.387 222.192C315.326 221.936 316.563 221.595 318.099 221.168C318.867 220.997 319.422 220.741 319.763 220.4C320.19 219.973 320.488 219.589 320.659 219.248C320.83 218.821 320.958 218.437 321.043 218.096C321.214 217.755 321.384 217.541 321.555 217.456L338.835 212.208C340.286 211.952 341.907 211.568 343.699 211.056C345.491 210.544 346.856 209.947 347.795 209.264L350.611 209.136ZM346.387 259.696C346.472 259.611 346.515 259.525 346.515 259.44V259.312C345.918 258.373 345.363 257.605 344.851 257.008C344.339 256.411 343.998 255.941 343.827 255.6L348.307 250.608H352.019C352.19 250.608 352.616 250.651 353.299 250.736C354.067 250.736 355.091 250.779 356.371 250.864C358.846 251.035 360.211 250.608 360.467 249.584H375.315C376.68 249.584 378.088 249.712 379.539 249.968C380.99 250.224 382.227 250.437 383.251 250.608C383.251 251.205 383.123 252.144 382.867 253.424C382.611 254.619 382.44 255.685 382.355 256.624C381.758 256.88 380.862 257.136 379.667 257.392C378.558 257.648 377.832 257.904 377.491 258.16L372.115 257.776L370.963 260.72C371.731 261.232 372.456 261.488 373.139 261.488C373.822 261.403 374.718 261.445 375.827 261.616C375.912 262.299 375.827 263.365 375.571 264.816C375.315 266.181 374.974 267.973 374.547 270.192C374.206 272.411 373.822 275.013 373.395 278C373.054 280.987 372.84 284.4 372.755 288.24L360.723 290.416L359.955 286.576C360.04 286.149 360.083 284.997 360.083 283.12C360.168 281.157 360.168 278.384 360.083 274.8C359.998 273.008 359.955 271.344 359.955 269.808C359.955 268.272 359.955 266.864 359.955 265.584V259.568C357.992 259.739 356.03 259.952 354.067 260.208C352.19 260.464 350.867 260.72 350.099 260.976L348.051 261.104L346.387 259.696Z" fill="white"/>
</g>
<defs>
<filter id="filter0_d_33_26" x="127.704" y="203.136" width="261.547" height="94.176" filterUnits="userSpaceOnUse" color-interpolation-filters="sRGB">
<feFlood flood-opacity="0" result="BackgroundImageFix"/>
<feColorMatrix in="SourceAlpha" type="matrix" values="0 0 0 0 0 0 0 0 0 0 0 0 0 0 0 0 0 0 127 0" result="hardAlpha"/>
<feOffset/>
<feGaussianBlur stdDeviation="3"/>
<feComposite in2="hardAlpha" operator="out"/>
<feColorMatrix type="matrix" values="0 0 0 0 0 0 0 0 0 0 0 0 0 0 0 0 0 0 1 0"/>
<feBlend mode="normal" in2="BackgroundImageFix" result="effect1_dropShadow_33_26"/>
<feBlend mode="normal" in="SourceGraphic" in2="effect1_dropShadow_33_26" result="shape"/>
</filter>
<linearGradient id="paint0_linear_33_26" x1="256" y1="0" x2="256" y2="512" gradientUnits="userSpaceOnUse">
<stop stop-color="#6D6363"/>
<stop offset="1" stop-color="#6D6363" stop-opacity="0"/>
</linearGradient>
</defs>
</svg>
