<svg width="144" height="144" viewBox="0 0 144 144" fill="none" xmlns="http://www.w3.org/2000/svg">
<rect width="144" height="144" rx="24" fill="#1E1E1E"/>
<rect width="144" height="144" rx="24" fill="url(#paint0_linear_35_28)"/>
<g filter="url(#filter0_d_35_28)">
<path d="M26.552 84.072V82.92C26.552 82.568 26.52 82.232 26.456 81.912C26.616 81.624 26.632 80.76 26.504 79.32C26.44 78.552 26.376 77.928 26.312 77.448C26.28 76.968 26.264 76.632 26.264 76.44V76.056C26.264 75.928 26.264 75.8 26.264 75.672C26.296 75.512 26.328 75.352 26.36 75.192C26.392 74.456 26.44 73.96 26.504 73.704C26.536 73.608 26.616 73.48 26.744 73.32C26.872 73.128 26.936 72.936 26.936 72.744C26.936 71.304 27 69.768 27.128 68.136C27.288 66.472 27.384 64.92 27.416 63.48C27.448 62.36 27.464 61.464 27.464 60.792C27.464 60.12 27.48 59.704 27.512 59.544C27.544 59.128 27.544 58.68 27.512 58.2C27.512 57.688 27.512 57.208 27.512 56.76C27.512 56.664 27.496 56.6 27.464 56.568L28.712 55.56H32.888C33.336 55.496 33.656 55.48 33.848 55.512C34.04 55.544 34.168 55.592 34.232 55.656L35.288 56.424C35.576 56.776 35.816 56.984 36.008 57.048C36.232 57.08 36.408 57.032 36.536 56.904C36.696 56.744 36.84 56.552 36.968 56.328C37.096 56.072 37.224 55.832 37.352 55.608L39.896 55.752L43.688 57.336C43.816 57.464 43.928 57.592 44.024 57.72C44.12 57.816 44.216 57.896 44.312 57.96C44.472 58.12 44.616 58.264 44.744 58.392C44.904 58.52 45.016 58.584 45.08 58.584C45.144 58.584 45.448 58.664 45.992 58.824C46.568 58.984 47.08 59.432 47.528 60.168C47.88 60.168 48.232 60.28 48.584 60.504C48.968 60.728 49.288 60.984 49.544 61.272C49.8 61.528 49.992 61.784 50.12 62.04C50.28 62.264 50.328 62.392 50.264 62.424C49.72 62.936 49.544 63.384 49.736 63.768C49.96 64.152 50.28 64.424 50.696 64.584C50.824 65.128 51.08 65.512 51.464 65.736C51.848 65.928 52.136 66.072 52.328 66.168C52.328 66.264 52.36 66.76 52.424 67.656C52.488 68.52 52.584 69.784 52.712 71.448C52.776 72.28 52.84 73.016 52.904 73.656C52.968 74.264 53.032 74.776 53.096 75.192C53.16 75.448 53.208 75.688 53.24 75.912C53.272 76.104 53.304 76.28 53.336 76.44C53.368 76.6 52.824 77.512 51.704 79.176C50.552 80.776 49.976 81.848 49.976 82.392H47.432C47.304 82.392 47.144 82.456 46.952 82.584C46.76 82.68 46.568 82.792 46.376 82.92L45.608 83.4C45.512 83.432 45.416 83.448 45.32 83.448C45.224 83.448 45.112 83.464 44.984 83.496C44.792 83.528 44.536 83.56 44.216 83.592C43.928 83.624 43.592 83.672 43.208 83.736C42.408 83.896 41.736 83.992 41.192 84.024C40.648 84.056 40.2 84.04 39.848 83.976C39.816 83.56 38.728 83.688 36.584 84.36C36.04 84.52 35.48 84.664 34.904 84.792C34.328 84.888 33.8 84.968 33.32 85.032C33.032 85.096 32.744 85.144 32.456 85.176C32.2 85.208 31.944 85.24 31.688 85.272L30.632 85.032C30.44 85.064 30.248 85.112 30.056 85.176C29.864 85.208 29.736 85.224 29.672 85.224C29.576 85.224 29.432 85.192 29.24 85.128C29.08 85.064 28.936 85.032 28.808 85.032C28.744 85.032 28.6 85.048 28.376 85.08C28.184 85.08 28.056 85.112 27.992 85.176L26.552 84.072ZM35.864 82.248C36.184 82.12 36.52 81.944 36.872 81.72C37.256 81.464 37.576 81.384 37.832 81.48H39.176C39.24 81.48 39.384 81.4 39.608 81.24C39.832 81.048 39.992 80.952 40.088 80.952C40.216 80.952 40.28 81.016 40.28 81.144C40.28 81.24 40.456 81.288 40.808 81.288C40.936 81.288 41.24 81.224 41.72 81.096C42.2 80.936 42.712 80.728 43.256 80.472C43.832 80.216 44.28 80.024 44.6 79.896C44.952 79.768 45.16 79.688 45.224 79.656C45.256 79.592 45.272 79.512 45.272 79.416C45.304 79.32 45.352 79.208 45.416 79.08C45.48 78.888 45.544 78.664 45.608 78.408C45.704 78.152 45.832 77.848 45.992 77.496C46.216 76.728 46.392 76.136 46.52 75.72C46.648 75.304 46.712 75.016 46.712 74.856L45.176 69.192C45.176 68.968 45.192 68.792 45.224 68.664C45.224 68.504 45.224 68.312 45.224 68.088C45.256 67.832 45.288 67.528 45.32 67.176C45.448 65.8 45.528 65.112 45.56 65.112C45.528 65.08 45.416 64.904 45.224 64.584C45.064 64.264 44.824 63.832 44.504 63.288C44.184 62.712 43.912 62.12 43.688 61.512C43.496 60.872 43.336 60.552 43.208 60.552L39.416 58.104H35.816C35.816 58.488 35.736 58.712 35.576 58.776C35.416 58.808 35.336 58.856 35.336 58.92V59.784C35.336 60.04 35.336 60.344 35.336 60.696C35.336 61.048 35.32 61.448 35.288 61.896V65.064C34.744 65.352 34.44 65.688 34.376 66.072C34.376 66.36 34.232 66.808 33.944 67.416C33.88 67.48 33.848 67.592 33.848 67.752C33.848 68.2 33.848 68.52 33.848 68.712C33.88 68.872 33.848 69.16 33.752 69.576C33.688 69.64 33.752 70.2 33.944 71.256C34.136 72.376 34.248 72.952 34.28 72.984C34.248 73.144 34.2 73.368 34.136 73.656C34.104 73.944 34.04 74.28 33.944 74.664C33.848 75.048 33.784 75.336 33.752 75.528C33.72 75.72 33.704 75.848 33.704 75.912C33.704 76.296 33.752 76.984 33.848 77.976C33.88 78.488 33.896 78.936 33.896 79.32C33.928 79.672 33.944 79.928 33.944 80.088C34.008 80.344 34.056 80.6 34.088 80.856C34.152 81.112 34.216 81.384 34.28 81.672L35.864 82.248ZM74.4635 55.176L75.2795 55.752L75.6635 56.904C75.5675 56.936 75.4555 56.984 75.3275 57.048C75.1035 57.176 74.8315 57.352 74.5115 57.576C74.1915 57.768 73.8715 57.976 73.5515 58.2C73.2635 58.392 73.0075 58.568 72.7835 58.728C72.5915 58.856 72.4795 58.92 72.4475 58.92L71.8715 59.208C71.6155 59.368 71.3275 59.512 71.0075 59.64L70.0955 60.12C69.9355 60.184 69.7915 60.248 69.6635 60.312C69.5675 60.376 69.4555 60.44 69.3275 60.504C69.2315 60.76 69.0715 61.048 68.8475 61.368C68.6235 61.688 68.3835 62.008 68.1275 62.328C67.8715 62.648 67.5995 62.936 67.3115 63.192C67.0555 63.448 66.8315 63.656 66.6395 63.816C66.6715 63.912 66.6715 64.024 66.6395 64.152C66.6395 64.28 66.5915 64.408 66.4955 64.536C66.3995 64.696 66.3035 65.048 66.2075 65.592C66.1115 66.104 66.0155 66.76 65.9195 67.56C65.8235 67.816 65.6155 68.024 65.2955 68.184C65.0075 68.312 64.8155 68.504 64.7195 68.76C64.6555 69.048 64.5755 69.368 64.4795 69.72C64.4155 70.072 64.5115 70.28 64.7675 70.344C65.1835 70.44 65.4235 70.52 65.4875 70.584C65.4235 71.032 65.3595 71.416 65.2955 71.736C65.2635 72.024 65.2155 72.312 65.1515 72.6C65.1195 72.888 65.0875 73.192 65.0555 73.512C65.0235 73.8 64.9915 74.168 64.9595 74.616C64.8955 75.544 64.8475 76.28 64.8155 76.824C64.8155 77.336 64.8315 77.656 64.8635 77.784L66.0155 81.624C66.3035 81.688 66.6875 81.768 67.1675 81.864C67.6795 81.928 68.2875 82.04 68.9915 82.2C70.3675 82.456 71.0875 82.504 71.1515 82.344C71.1195 82.12 71.8875 81.816 73.4555 81.432C75.0555 81.08 75.8555 80.792 75.8555 80.568L76.8635 80.664L76.2395 83.256C76.1755 83.288 76.0955 83.304 75.9995 83.304C75.9355 83.304 75.8715 83.32 75.8075 83.352C75.6475 83.384 75.4715 83.416 75.2795 83.448C75.1195 83.48 74.9115 83.528 74.6555 83.592C74.1435 83.688 73.7435 83.768 73.4555 83.832C73.1675 83.864 72.9915 83.896 72.9275 83.928C72.1595 84.024 71.5515 84.392 71.1035 85.032C70.5595 85.672 70.2715 85.912 70.2395 85.752C69.9195 85.88 69.5515 85.832 69.1355 85.608C68.8155 85.32 68.1595 85.288 67.1675 85.512L62.3675 84.936L57.7595 81.768C58.2715 81.384 58.0475 80.024 57.0875 77.688C56.8315 77.08 56.6075 76.552 56.4155 76.104C56.2555 75.656 56.1115 75.288 55.9835 75C55.9195 74.84 55.8555 74.696 55.7915 74.568C55.7595 74.408 55.7115 74.264 55.6475 74.136C55.6155 73.496 55.6955 72.776 55.8875 71.976C56.1115 71.144 56.2715 70.36 56.3675 69.624L57.2315 69.048C57.6795 68.76 57.9995 68.472 58.1915 68.184C58.3835 67.896 58.2875 67.528 57.9035 67.08C57.9675 66.696 58.0155 66.28 58.0475 65.832C58.1115 65.384 58.1595 64.952 58.1915 64.536C58.2555 64.12 58.3035 63.768 58.3355 63.48C58.3675 63.192 58.3835 63.032 58.3835 63L60.2555 60.312C60.3195 60.248 60.5275 60.168 60.8795 60.072C61.2315 59.976 61.6955 59.848 62.2715 59.688C62.5595 59.624 62.7675 59.528 62.8955 59.4C63.0555 59.24 63.1675 59.096 63.2315 58.968C63.2955 58.808 63.3435 58.664 63.3755 58.536C63.4395 58.408 63.5035 58.328 63.5675 58.296L70.0475 56.328C70.5915 56.232 71.1995 56.088 71.8715 55.896C72.5435 55.704 73.0555 55.48 73.4075 55.224L74.4635 55.176ZM72.8795 74.136C72.9115 74.104 72.9275 74.072 72.9275 74.04V73.992C72.7035 73.64 72.4955 73.352 72.3035 73.128C72.1115 72.904 71.9835 72.728 71.9195 72.6L73.5995 70.728H74.9915C75.0555 70.728 75.2155 70.744 75.4715 70.776C75.7595 70.776 76.1435 70.792 76.6235 70.824C77.5515 70.888 78.0635 70.728 78.1595 70.344H83.7275C84.2395 70.344 84.7675 70.392 85.3115 70.488C85.8555 70.584 86.3195 70.664 86.7035 70.728C86.7035 70.952 86.6555 71.304 86.5595 71.784C86.4635 72.232 86.3995 72.632 86.3675 72.984C86.1435 73.08 85.8075 73.176 85.3595 73.272C84.9435 73.368 84.6715 73.464 84.5435 73.56L82.5275 73.416L82.0955 74.52C82.3835 74.712 82.6555 74.808 82.9115 74.808C83.1675 74.776 83.5035 74.792 83.9195 74.856C83.9515 75.112 83.9195 75.512 83.8235 76.056C83.7275 76.568 83.5995 77.24 83.4395 78.072C83.3115 78.904 83.1675 79.88 83.0075 81C82.8795 82.12 82.7995 83.4 82.7675 84.84L78.2555 85.656L77.9675 84.216C77.9995 84.056 78.0155 83.624 78.0155 82.92C78.0475 82.184 78.0475 81.144 78.0155 79.8C77.9835 79.128 77.9675 78.504 77.9675 77.928C77.9675 77.352 77.9675 76.824 77.9675 76.344V74.088C77.2315 74.152 76.4955 74.232 75.7595 74.328C75.0555 74.424 74.5595 74.52 74.2715 74.616L73.5035 74.664L72.8795 74.136ZM107.604 55.176L108.42 55.752L108.804 56.904C108.708 56.936 108.596 56.984 108.468 57.048C108.244 57.176 107.972 57.352 107.652 57.576C107.332 57.768 107.012 57.976 106.692 58.2C106.404 58.392 106.148 58.568 105.924 58.728C105.732 58.856 105.62 58.92 105.588 58.92L105.012 59.208C104.756 59.368 104.468 59.512 104.148 59.64L103.236 60.12C103.076 60.184 102.932 60.248 102.804 60.312C102.708 60.376 102.596 60.44 102.468 60.504C102.372 60.76 102.212 61.048 101.988 61.368C101.764 61.688 101.524 62.008 101.268 62.328C101.012 62.648 100.74 62.936 100.452 63.192C100.196 63.448 99.9721 63.656 99.7801 63.816C99.8121 63.912 99.8121 64.024 99.7801 64.152C99.7801 64.28 99.7321 64.408 99.6361 64.536C99.5401 64.696 99.4441 65.048 99.3481 65.592C99.2521 66.104 99.1561 66.76 99.0601 67.56C98.9641 67.816 98.7561 68.024 98.4361 68.184C98.1481 68.312 97.9561 68.504 97.8601 68.76C97.7961 69.048 97.7161 69.368 97.6201 69.72C97.5561 70.072 97.6521 70.28 97.9081 70.344C98.3241 70.44 98.5641 70.52 98.6281 70.584C98.5641 71.032 98.5001 71.416 98.4361 71.736C98.4041 72.024 98.3561 72.312 98.2921 72.6C98.2601 72.888 98.2281 73.192 98.1961 73.512C98.1641 73.8 98.1321 74.168 98.1001 74.616C98.0361 75.544 97.9881 76.28 97.9561 76.824C97.9561 77.336 97.9721 77.656 98.0041 77.784L99.1561 81.624C99.4441 81.688 99.8281 81.768 100.308 81.864C100.82 81.928 101.428 82.04 102.132 82.2C103.508 82.456 104.228 82.504 104.292 82.344C104.26 82.12 105.028 81.816 106.596 81.432C108.196 81.08 108.996 80.792 108.996 80.568L110.004 80.664L109.38 83.256C109.316 83.288 109.236 83.304 109.14 83.304C109.076 83.304 109.012 83.32 108.948 83.352C108.788 83.384 108.612 83.416 108.42 83.448C108.26 83.48 108.052 83.528 107.796 83.592C107.284 83.688 106.884 83.768 106.596 83.832C106.308 83.864 106.132 83.896 106.068 83.928C105.3 84.024 104.692 84.392 104.244 85.032C103.7 85.672 103.412 85.912 103.38 85.752C103.06 85.88 102.692 85.832 102.276 85.608C101.956 85.32 101.3 85.288 100.308 85.512L95.5081 84.936L90.9001 81.768C91.4121 81.384 91.1881 80.024 90.2281 77.688C89.9721 77.08 89.7481 76.552 89.5561 76.104C89.3961 75.656 89.2521 75.288 89.1241 75C89.0601 74.84 88.9961 74.696 88.9321 74.568C88.9001 74.408 88.8521 74.264 88.7881 74.136C88.7561 73.496 88.8361 72.776 89.0281 71.976C89.2521 71.144 89.4121 70.36 89.5081 69.624L90.3721 69.048C90.8201 68.76 91.1401 68.472 91.3321 68.184C91.5241 67.896 91.4281 67.528 91.0441 67.08C91.1081 66.696 91.1561 66.28 91.1881 65.832C91.2521 65.384 91.3001 64.952 91.3321 64.536C91.3961 64.12 91.4441 63.768 91.4761 63.48C91.5081 63.192 91.5241 63.032 91.5241 63L93.3961 60.312C93.4601 60.248 93.6681 60.168 94.0201 60.072C94.3721 59.976 94.8361 59.848 95.4121 59.688C95.7001 59.624 95.9081 59.528 96.0361 59.4C96.1961 59.24 96.3081 59.096 96.3721 58.968C96.4361 58.808 96.4841 58.664 96.5161 58.536C96.5801 58.408 96.6441 58.328 96.7081 58.296L103.188 56.328C103.732 56.232 104.34 56.088 105.012 55.896C105.684 55.704 106.196 55.48 106.548 55.224L107.604 55.176ZM106.02 74.136C106.052 74.104 106.068 74.072 106.068 74.04V73.992C105.844 73.64 105.636 73.352 105.444 73.128C105.252 72.904 105.124 72.728 105.06 72.6L106.74 70.728H108.132C108.196 70.728 108.356 70.744 108.612 70.776C108.9 70.776 109.284 70.792 109.764 70.824C110.692 70.888 111.204 70.728 111.3 70.344H116.868C117.38 70.344 117.908 70.392 118.452 70.488C118.996 70.584 119.46 70.664 119.844 70.728C119.844 70.952 119.796 71.304 119.7 71.784C119.604 72.232 119.54 72.632 119.508 72.984C119.284 73.08 118.948 73.176 118.5 73.272C118.084 73.368 117.812 73.464 117.684 73.56L115.668 73.416L115.236 74.52C115.524 74.712 115.796 74.808 116.052 74.808C116.308 74.776 116.644 74.792 117.06 74.856C117.092 75.112 117.06 75.512 116.964 76.056C116.868 76.568 116.74 77.24 116.58 78.072C116.452 78.904 116.308 79.88 116.148 81C116.02 82.12 115.94 83.4 115.908 84.84L111.396 85.656L111.108 84.216C111.14 84.056 111.156 83.624 111.156 82.92C111.188 82.184 111.188 81.144 111.156 79.8C111.124 79.128 111.108 78.504 111.108 77.928C111.108 77.352 111.108 76.824 111.108 76.344V74.088C110.372 74.152 109.636 74.232 108.9 74.328C108.196 74.424 107.7 74.52 107.412 74.616L106.644 74.664L106.02 74.136Z" fill="white"/>
</g>
<defs>
<filter id="filter0_d_35_28" x="20.264" y="49.176" width="105.58" height="42.816" filterUnits="userSpaceOnUse" color-interpolation-filters="sRGB">
<feFlood flood-opacity="0" result="BackgroundImageFix"/>
<feColorMatrix in="SourceAlpha" type="matrix" values="0 0 0 0 0 0 0 0 0 0 0 0 0 0 0 0 0 0 127 0" result="hardAlpha"/>
<feOffset/>
<feGaussianBlur stdDeviation="3"/>
<feComposite in2="hardAlpha" operator="out"/>
<feColorMatrix type="matrix" values="0 0 0 0 0 0 0 0 0 0 0 0 0 0 0 0 0 0 1 0"/>
<feBlend mode="normal" in2="BackgroundImageFix" result="effect1_dropShadow_35_28"/>
<feBlend mode="normal" in="SourceGraphic" in2="effect1_dropShadow_35_28" result="shape"/>
</filter>
<linearGradient id="paint0_linear_35_28" x1="72" y1="0" x2="72" y2="144" gradientUnits="userSpaceOnUse">
<stop stop-color="#6D6363"/>
<stop offset="1" stop-color="#6D6363" stop-opacity="0"/>
</linearGradient>
</defs>
</svg>
