<svg width="16" height="16" viewBox="0 0 16 16" fill="none" xmlns="http://www.w3.org/2000/svg">
<g clip-path="url(#clip0_33_22)">
<rect width="16" height="16" rx="4" fill="#1E1E1E"/>
<rect width="16" height="16" rx="4" fill="url(#paint0_linear_33_22)"/>
<g filter="url(#filter0_d_33_22)">
<path d="M2.444 9.634V9.49C2.444 9.446 2.44 9.404 2.432 9.364C2.452 9.328 2.454 9.22 2.438 9.04C2.43 8.944 2.422 8.866 2.414 8.806C2.41 8.746 2.408 8.704 2.408 8.68V8.632C2.408 8.616 2.408 8.6 2.408 8.584C2.412 8.564 2.416 8.544 2.42 8.524C2.424 8.432 2.43 8.37 2.438 8.338C2.442 8.326 2.452 8.31 2.468 8.29C2.484 8.266 2.492 8.242 2.492 8.218C2.492 8.038 2.5 7.846 2.516 7.642C2.536 7.434 2.548 7.24 2.552 7.06C2.556 6.92 2.558 6.808 2.558 6.724C2.558 6.64 2.56 6.588 2.564 6.568C2.568 6.516 2.568 6.46 2.564 6.4C2.564 6.336 2.564 6.276 2.564 6.22C2.564 6.208 2.562 6.2 2.558 6.196L2.714 6.07H3.236C3.292 6.062 3.332 6.06 3.356 6.064C3.38 6.068 3.396 6.074 3.404 6.082L3.536 6.178C3.572 6.222 3.602 6.248 3.626 6.256C3.654 6.26 3.676 6.254 3.692 6.238C3.712 6.218 3.73 6.194 3.746 6.166C3.762 6.134 3.778 6.104 3.794 6.076L4.112 6.094L4.586 6.292C4.602 6.308 4.616 6.324 4.628 6.34C4.64 6.352 4.652 6.362 4.664 6.37C4.684 6.39 4.702 6.408 4.718 6.424C4.738 6.44 4.752 6.448 4.76 6.448C4.768 6.448 4.806 6.458 4.874 6.478C4.946 6.498 5.01 6.554 5.066 6.646C5.11 6.646 5.154 6.66 5.198 6.688C5.246 6.716 5.286 6.748 5.318 6.784C5.35 6.816 5.374 6.848 5.39 6.88C5.41 6.908 5.416 6.924 5.408 6.928C5.34 6.992 5.318 7.048 5.342 7.096C5.37 7.144 5.41 7.178 5.462 7.198C5.478 7.266 5.51 7.314 5.558 7.342C5.606 7.366 5.642 7.384 5.666 7.396C5.666 7.408 5.67 7.47 5.678 7.582C5.686 7.69 5.698 7.848 5.714 8.056C5.722 8.16 5.73 8.252 5.738 8.332C5.746 8.408 5.754 8.472 5.762 8.524C5.77 8.556 5.776 8.586 5.78 8.614C5.784 8.638 5.788 8.66 5.792 8.68C5.796 8.7 5.728 8.814 5.588 9.022C5.444 9.222 5.372 9.356 5.372 9.424H5.054C5.038 9.424 5.018 9.432 4.994 9.448C4.97 9.46 4.946 9.474 4.922 9.49L4.826 9.55C4.814 9.554 4.802 9.556 4.79 9.556C4.778 9.556 4.764 9.558 4.748 9.562C4.724 9.566 4.692 9.57 4.652 9.574C4.616 9.578 4.574 9.584 4.526 9.592C4.426 9.612 4.342 9.624 4.274 9.628C4.206 9.632 4.15 9.63 4.106 9.622C4.102 9.57 3.966 9.586 3.698 9.67C3.63 9.69 3.56 9.708 3.488 9.724C3.416 9.736 3.35 9.746 3.29 9.754C3.254 9.762 3.218 9.768 3.182 9.772C3.15 9.776 3.118 9.78 3.086 9.784L2.954 9.754C2.93 9.758 2.906 9.764 2.882 9.772C2.858 9.776 2.842 9.778 2.834 9.778C2.822 9.778 2.804 9.774 2.78 9.766C2.76 9.758 2.742 9.754 2.726 9.754C2.718 9.754 2.7 9.756 2.672 9.76C2.648 9.76 2.632 9.764 2.624 9.772L2.444 9.634ZM3.608 9.406C3.648 9.39 3.69 9.368 3.734 9.34C3.782 9.308 3.822 9.298 3.854 9.31H4.022C4.03 9.31 4.048 9.3 4.076 9.28C4.104 9.256 4.124 9.244 4.136 9.244C4.152 9.244 4.16 9.252 4.16 9.268C4.16 9.28 4.182 9.286 4.226 9.286C4.242 9.286 4.28 9.278 4.34 9.262C4.4 9.242 4.464 9.216 4.532 9.184C4.604 9.152 4.66 9.128 4.7 9.112C4.744 9.096 4.77 9.086 4.778 9.082C4.782 9.074 4.784 9.064 4.784 9.052C4.788 9.04 4.794 9.026 4.802 9.01C4.81 8.986 4.818 8.958 4.826 8.926C4.838 8.894 4.854 8.856 4.874 8.812C4.902 8.716 4.924 8.642 4.94 8.59C4.956 8.538 4.964 8.502 4.964 8.482L4.772 7.774C4.772 7.746 4.774 7.724 4.778 7.708C4.778 7.688 4.778 7.664 4.778 7.636C4.782 7.604 4.786 7.566 4.79 7.522C4.806 7.35 4.816 7.264 4.82 7.264C4.816 7.26 4.802 7.238 4.778 7.198C4.758 7.158 4.728 7.104 4.688 7.036C4.648 6.964 4.614 6.89 4.586 6.814C4.562 6.734 4.542 6.694 4.526 6.694L4.052 6.388H3.602C3.602 6.436 3.592 6.464 3.572 6.472C3.552 6.476 3.542 6.482 3.542 6.49V6.598C3.542 6.63 3.542 6.668 3.542 6.712C3.542 6.756 3.54 6.806 3.536 6.862V7.258C3.468 7.294 3.43 7.336 3.422 7.384C3.422 7.42 3.404 7.476 3.368 7.552C3.36 7.56 3.356 7.574 3.356 7.594C3.356 7.65 3.356 7.69 3.356 7.714C3.36 7.734 3.356 7.77 3.344 7.822C3.336 7.83 3.344 7.9 3.368 8.032C3.392 8.172 3.406 8.244 3.41 8.248C3.406 8.268 3.4 8.296 3.392 8.332C3.388 8.368 3.38 8.41 3.368 8.458C3.356 8.506 3.348 8.542 3.344 8.566C3.34 8.59 3.338 8.606 3.338 8.614C3.338 8.662 3.344 8.748 3.356 8.872C3.36 8.936 3.362 8.992 3.362 9.04C3.366 9.084 3.368 9.116 3.368 9.136C3.376 9.168 3.382 9.2 3.386 9.232C3.394 9.264 3.402 9.298 3.41 9.334L3.608 9.406ZM8.43294 6.022L8.53494 6.094L8.58294 6.238C8.57094 6.242 8.55694 6.248 8.54094 6.256C8.51294 6.272 8.47894 6.294 8.43894 6.322C8.39894 6.346 8.35894 6.372 8.31894 6.4C8.28294 6.424 8.25094 6.446 8.22294 6.466C8.19894 6.482 8.18494 6.49 8.18094 6.49L8.10894 6.526C8.07694 6.546 8.04094 6.564 8.00094 6.58L7.88694 6.64C7.86694 6.648 7.84894 6.656 7.83294 6.664C7.82094 6.672 7.80694 6.68 7.79094 6.688C7.77894 6.72 7.75894 6.756 7.73094 6.796C7.70294 6.836 7.67294 6.876 7.64094 6.916C7.60894 6.956 7.57494 6.992 7.53894 7.024C7.50694 7.056 7.47894 7.082 7.45494 7.102C7.45894 7.114 7.45894 7.128 7.45494 7.144C7.45494 7.16 7.44894 7.176 7.43694 7.192C7.42494 7.212 7.41294 7.256 7.40094 7.324C7.38894 7.388 7.37694 7.47 7.36494 7.57C7.35294 7.602 7.32694 7.628 7.28694 7.648C7.25094 7.664 7.22694 7.688 7.21494 7.72C7.20694 7.756 7.19694 7.796 7.18494 7.84C7.17694 7.884 7.18894 7.91 7.22094 7.918C7.27294 7.93 7.30294 7.94 7.31094 7.948C7.30294 8.004 7.29494 8.052 7.28694 8.092C7.28294 8.128 7.27694 8.164 7.26894 8.2C7.26494 8.236 7.26094 8.274 7.25694 8.314C7.25294 8.35 7.24894 8.396 7.24494 8.452C7.23694 8.568 7.23094 8.66 7.22694 8.728C7.22694 8.792 7.22894 8.832 7.23294 8.848L7.37694 9.328C7.41294 9.336 7.46094 9.346 7.52094 9.358C7.58494 9.366 7.66094 9.38 7.74894 9.4C7.92094 9.432 8.01094 9.438 8.01894 9.418C8.01494 9.39 8.11094 9.352 8.30694 9.304C8.50694 9.26 8.60694 9.224 8.60694 9.196L8.73294 9.208L8.65494 9.532C8.64694 9.536 8.63694 9.538 8.62494 9.538C8.61694 9.538 8.60894 9.54 8.60094 9.544C8.58094 9.548 8.55894 9.552 8.53494 9.556C8.51494 9.56 8.48894 9.566 8.45694 9.574C8.39294 9.586 8.34294 9.596 8.30694 9.604C8.27094 9.608 8.24894 9.612 8.24094 9.616C8.14494 9.628 8.06894 9.674 8.01294 9.754C7.94494 9.834 7.90894 9.864 7.90494 9.844C7.86494 9.86 7.81894 9.854 7.76694 9.826C7.72694 9.79 7.64494 9.786 7.52094 9.814L6.92094 9.742L6.34494 9.346C6.40894 9.298 6.38094 9.128 6.26094 8.836C6.22894 8.76 6.20094 8.694 6.17694 8.638C6.15694 8.582 6.13894 8.536 6.12294 8.5C6.11494 8.48 6.10694 8.462 6.09894 8.446C6.09494 8.426 6.08894 8.408 6.08094 8.392C6.07694 8.312 6.08694 8.222 6.11094 8.122C6.13894 8.018 6.15894 7.92 6.17094 7.828L6.27894 7.756C6.33494 7.72 6.37494 7.684 6.39894 7.648C6.42294 7.612 6.41094 7.566 6.36294 7.51C6.37094 7.462 6.37694 7.41 6.38094 7.354C6.38894 7.298 6.39494 7.244 6.39894 7.192C6.40694 7.14 6.41294 7.096 6.41694 7.06C6.42094 7.024 6.42294 7.004 6.42294 7L6.65694 6.664C6.66494 6.656 6.69094 6.646 6.73494 6.634C6.77894 6.622 6.83694 6.606 6.90894 6.586C6.94494 6.578 6.97094 6.566 6.98694 6.55C7.00694 6.53 7.02094 6.512 7.02894 6.496C7.03694 6.476 7.04294 6.458 7.04694 6.442C7.05494 6.426 7.06294 6.416 7.07094 6.412L7.88094 6.166C7.94894 6.154 8.02494 6.136 8.10894 6.112C8.19294 6.088 8.25694 6.06 8.30094 6.028L8.43294 6.022ZM8.23494 8.392C8.23894 8.388 8.24094 8.384 8.24094 8.38V8.374C8.21294 8.33 8.18694 8.294 8.16294 8.266C8.13894 8.238 8.12294 8.216 8.11494 8.2L8.32494 7.966H8.49894C8.50694 7.966 8.52694 7.968 8.55894 7.972C8.59494 7.972 8.64294 7.974 8.70294 7.978C8.81894 7.986 8.88294 7.966 8.89494 7.918H9.59094C9.65494 7.918 9.72094 7.924 9.78894 7.936C9.85694 7.948 9.91494 7.958 9.96294 7.966C9.96294 7.994 9.95694 8.038 9.94494 8.098C9.93294 8.154 9.92494 8.204 9.92094 8.248C9.89294 8.26 9.85094 8.272 9.79494 8.284C9.74294 8.296 9.70894 8.308 9.69294 8.32L9.44094 8.302L9.38694 8.44C9.42294 8.464 9.45694 8.476 9.48894 8.476C9.52094 8.472 9.56294 8.474 9.61494 8.482C9.61894 8.514 9.61494 8.564 9.60294 8.632C9.59094 8.696 9.57494 8.78 9.55494 8.884C9.53894 8.988 9.52094 9.11 9.50094 9.25C9.48494 9.39 9.47494 9.55 9.47094 9.73L8.90694 9.832L8.87094 9.652C8.87494 9.632 8.87694 9.578 8.87694 9.49C8.88094 9.398 8.88094 9.268 8.87694 9.1C8.87294 9.016 8.87094 8.938 8.87094 8.866C8.87094 8.794 8.87094 8.728 8.87094 8.668V8.386C8.77894 8.394 8.68694 8.404 8.59494 8.416C8.50694 8.428 8.44494 8.44 8.40894 8.452L8.31294 8.458L8.23494 8.392ZM12.5755 6.022L12.6775 6.094L12.7255 6.238C12.7135 6.242 12.6995 6.248 12.6835 6.256C12.6555 6.272 12.6215 6.294 12.5815 6.322C12.5415 6.346 12.5015 6.372 12.4615 6.4C12.4255 6.424 12.3935 6.446 12.3655 6.466C12.3415 6.482 12.3275 6.49 12.3235 6.49L12.2515 6.526C12.2195 6.546 12.1835 6.564 12.1435 6.58L12.0295 6.64C12.0095 6.648 11.9915 6.656 11.9755 6.664C11.9635 6.672 11.9495 6.68 11.9335 6.688C11.9215 6.72 11.9015 6.756 11.8735 6.796C11.8455 6.836 11.8155 6.876 11.7835 6.916C11.7515 6.956 11.7175 6.992 11.6815 7.024C11.6495 7.056 11.6215 7.082 11.5975 7.102C11.6015 7.114 11.6015 7.128 11.5975 7.144C11.5975 7.16 11.5915 7.176 11.5795 7.192C11.5675 7.212 11.5555 7.256 11.5435 7.324C11.5315 7.388 11.5195 7.47 11.5075 7.57C11.4955 7.602 11.4695 7.628 11.4295 7.648C11.3935 7.664 11.3695 7.688 11.3575 7.72C11.3495 7.756 11.3395 7.796 11.3275 7.84C11.3195 7.884 11.3315 7.91 11.3635 7.918C11.4155 7.93 11.4455 7.94 11.4535 7.948C11.4455 8.004 11.4375 8.052 11.4295 8.092C11.4255 8.128 11.4195 8.164 11.4115 8.2C11.4075 8.236 11.4035 8.274 11.3995 8.314C11.3955 8.35 11.3915 8.396 11.3875 8.452C11.3795 8.568 11.3735 8.66 11.3695 8.728C11.3695 8.792 11.3715 8.832 11.3755 8.848L11.5195 9.328C11.5555 9.336 11.6035 9.346 11.6635 9.358C11.7275 9.366 11.8035 9.38 11.8915 9.4C12.0635 9.432 12.1535 9.438 12.1615 9.418C12.1575 9.39 12.2535 9.352 12.4495 9.304C12.6495 9.26 12.7495 9.224 12.7495 9.196L12.8755 9.208L12.7975 9.532C12.7895 9.536 12.7795 9.538 12.7675 9.538C12.7595 9.538 12.7515 9.54 12.7435 9.544C12.7235 9.548 12.7015 9.552 12.6775 9.556C12.6575 9.56 12.6315 9.566 12.5995 9.574C12.5355 9.586 12.4855 9.596 12.4495 9.604C12.4135 9.608 12.3915 9.612 12.3835 9.616C12.2875 9.628 12.2115 9.674 12.1555 9.754C12.0875 9.834 12.0515 9.864 12.0475 9.844C12.0075 9.86 11.9615 9.854 11.9095 9.826C11.8695 9.79 11.7875 9.786 11.6635 9.814L11.0635 9.742L10.4875 9.346C10.5515 9.298 10.5235 9.128 10.4035 8.836C10.3715 8.76 10.3435 8.694 10.3195 8.638C10.2995 8.582 10.2815 8.536 10.2655 8.5C10.2575 8.48 10.2495 8.462 10.2415 8.446C10.2375 8.426 10.2315 8.408 10.2235 8.392C10.2195 8.312 10.2295 8.222 10.2535 8.122C10.2815 8.018 10.3015 7.92 10.3135 7.828L10.4215 7.756C10.4775 7.72 10.5175 7.684 10.5415 7.648C10.5655 7.612 10.5535 7.566 10.5055 7.51C10.5135 7.462 10.5195 7.41 10.5235 7.354C10.5315 7.298 10.5375 7.244 10.5415 7.192C10.5495 7.14 10.5555 7.096 10.5595 7.06C10.5635 7.024 10.5655 7.004 10.5655 7L10.7995 6.664C10.8075 6.656 10.8335 6.646 10.8775 6.634C10.9215 6.622 10.9795 6.606 11.0515 6.586C11.0875 6.578 11.1135 6.566 11.1295 6.55C11.1495 6.53 11.1635 6.512 11.1715 6.496C11.1795 6.476 11.1855 6.458 11.1895 6.442C11.1975 6.426 11.2055 6.416 11.2135 6.412L12.0235 6.166C12.0915 6.154 12.1675 6.136 12.2515 6.112C12.3355 6.088 12.3995 6.06 12.4435 6.028L12.5755 6.022ZM12.3775 8.392C12.3815 8.388 12.3835 8.384 12.3835 8.38V8.374C12.3555 8.33 12.3295 8.294 12.3055 8.266C12.2815 8.238 12.2655 8.216 12.2575 8.2L12.4675 7.966H12.6415C12.6495 7.966 12.6695 7.968 12.7015 7.972C12.7375 7.972 12.7855 7.974 12.8455 7.978C12.9615 7.986 13.0255 7.966 13.0375 7.918H13.7335C13.7975 7.918 13.8635 7.924 13.9315 7.936C13.9995 7.948 14.0575 7.958 14.1055 7.966C14.1055 7.994 14.0995 8.038 14.0875 8.098C14.0755 8.154 14.0675 8.204 14.0635 8.248C14.0355 8.26 13.9935 8.272 13.9375 8.284C13.8855 8.296 13.8515 8.308 13.8355 8.32L13.5835 8.302L13.5295 8.44C13.5655 8.464 13.5995 8.476 13.6315 8.476C13.6635 8.472 13.7055 8.474 13.7575 8.482C13.7615 8.514 13.7575 8.564 13.7455 8.632C13.7335 8.696 13.7175 8.78 13.6975 8.884C13.6815 8.988 13.6635 9.11 13.6435 9.25C13.6275 9.39 13.6175 9.55 13.6135 9.73L13.0495 9.832L13.0135 9.652C13.0175 9.632 13.0195 9.578 13.0195 9.49C13.0235 9.398 13.0235 9.268 13.0195 9.1C13.0155 9.016 13.0135 8.938 13.0135 8.866C13.0135 8.794 13.0135 8.728 13.0135 8.668V8.386C12.9215 8.394 12.8295 8.404 12.7375 8.416C12.6495 8.428 12.5875 8.44 12.5515 8.452L12.4555 8.458L12.3775 8.392Z" fill="white"/>
</g>
</g>
<defs>
<filter id="filter0_d_33_22" x="-3.59204" y="0.0219994" width="23.6975" height="15.852" filterUnits="userSpaceOnUse" color-interpolation-filters="sRGB">
<feFlood flood-opacity="0" result="BackgroundImageFix"/>
<feColorMatrix in="SourceAlpha" type="matrix" values="0 0 0 0 0 0 0 0 0 0 0 0 0 0 0 0 0 0 127 0" result="hardAlpha"/>
<feOffset/>
<feGaussianBlur stdDeviation="3"/>
<feComposite in2="hardAlpha" operator="out"/>
<feColorMatrix type="matrix" values="0 0 0 0 0 0 0 0 0 0 0 0 0 0 0 0 0 0 1 0"/>
<feBlend mode="normal" in2="BackgroundImageFix" result="effect1_dropShadow_33_22"/>
<feBlend mode="normal" in="SourceGraphic" in2="effect1_dropShadow_33_22" result="shape"/>
</filter>
<linearGradient id="paint0_linear_33_22" x1="8" y1="0" x2="8" y2="16" gradientUnits="userSpaceOnUse">
<stop stop-color="#6D6363"/>
<stop offset="1" stop-color="#6D6363" stop-opacity="0"/>
</linearGradient>
<clipPath id="clip0_33_22">
<rect width="16" height="16" rx="4" fill="white"/>
</clipPath>
</defs>
</svg>
