<svg width="192" height="192" viewBox="0 0 192 192" fill="none" xmlns="http://www.w3.org/2000/svg">
<rect width="192" height="192" rx="24" fill="#1E1E1E"/>
<rect width="192" height="192" rx="24" fill="url(#paint0_linear_33_24)"/>
<g filter="url(#filter0_d_33_24)">
<path d="M34.736 111.096V109.56C34.736 109.091 34.6933 108.643 34.608 108.216C34.8213 107.832 34.8427 106.68 34.672 104.76C34.5867 103.736 34.5013 102.904 34.416 102.264C34.3733 101.624 34.352 101.176 34.352 100.92V100.408C34.352 100.237 34.352 100.067 34.352 99.896C34.3947 99.6827 34.4373 99.4693 34.48 99.256C34.5227 98.2747 34.5867 97.6133 34.672 97.272C34.7147 97.144 34.8213 96.9733 34.992 96.76C35.1627 96.504 35.248 96.248 35.248 95.992C35.248 94.072 35.3333 92.024 35.504 89.848C35.7173 87.6293 35.8453 85.56 35.888 83.64C35.9307 82.1467 35.952 80.952 35.952 80.056C35.952 79.16 35.9733 78.6053 36.016 78.392C36.0587 77.8373 36.0587 77.24 36.016 76.6C36.016 75.9173 36.016 75.2773 36.016 74.68C36.016 74.552 35.9947 74.4667 35.952 74.424L37.616 73.08H43.184C43.7813 72.9947 44.208 72.9733 44.464 73.016C44.72 73.0587 44.8907 73.1227 44.976 73.208L46.384 74.232C46.768 74.7013 47.088 74.9787 47.344 75.064C47.6427 75.1067 47.8773 75.0427 48.048 74.872C48.2613 74.6587 48.4533 74.4027 48.624 74.104C48.7947 73.7627 48.9653 73.4427 49.136 73.144L52.528 73.336L57.584 75.448C57.7547 75.6187 57.904 75.7893 58.032 75.96C58.16 76.088 58.288 76.1947 58.416 76.28C58.6293 76.4933 58.8213 76.6853 58.992 76.856C59.2053 77.0267 59.3547 77.112 59.44 77.112C59.5253 77.112 59.9307 77.2187 60.656 77.432C61.424 77.6453 62.1067 78.2427 62.704 79.224C63.1733 79.224 63.6427 79.3733 64.112 79.672C64.624 79.9707 65.0507 80.312 65.392 80.696C65.7333 81.0373 65.9893 81.3787 66.16 81.72C66.3733 82.0187 66.4373 82.1893 66.352 82.232C65.6267 82.9147 65.392 83.512 65.648 84.024C65.9467 84.536 66.3733 84.8987 66.928 85.112C67.0987 85.8373 67.44 86.3493 67.952 86.648C68.464 86.904 68.848 87.096 69.104 87.224C69.104 87.352 69.1467 88.0133 69.232 89.208C69.3173 90.36 69.4453 92.0453 69.616 94.264C69.7013 95.3733 69.7867 96.3547 69.872 97.208C69.9573 98.0187 70.0427 98.7013 70.128 99.256C70.2133 99.5973 70.2773 99.9173 70.32 100.216C70.3627 100.472 70.4053 100.707 70.448 100.92C70.4907 101.133 69.7653 102.349 68.272 104.568C66.736 106.701 65.968 108.131 65.968 108.856H62.576C62.4053 108.856 62.192 108.941 61.936 109.112C61.68 109.24 61.424 109.389 61.168 109.56L60.144 110.2C60.016 110.243 59.888 110.264 59.76 110.264C59.632 110.264 59.4827 110.285 59.312 110.328C59.056 110.371 58.7147 110.413 58.288 110.456C57.904 110.499 57.456 110.563 56.944 110.648C55.8773 110.861 54.9813 110.989 54.256 111.032C53.5307 111.075 52.9333 111.053 52.464 110.968C52.4213 110.413 50.9707 110.584 48.112 111.48C47.3867 111.693 46.64 111.885 45.872 112.056C45.104 112.184 44.4 112.291 43.76 112.376C43.376 112.461 42.992 112.525 42.608 112.568C42.2667 112.611 41.9253 112.653 41.584 112.696L40.176 112.376C39.92 112.419 39.664 112.483 39.408 112.568C39.152 112.611 38.9813 112.632 38.896 112.632C38.768 112.632 38.576 112.589 38.32 112.504C38.1067 112.419 37.9147 112.376 37.744 112.376C37.6587 112.376 37.4667 112.397 37.168 112.44C36.912 112.44 36.7413 112.483 36.656 112.568L34.736 111.096ZM47.152 108.664C47.5787 108.493 48.0267 108.259 48.496 107.96C49.008 107.619 49.4347 107.512 49.776 107.64H51.568C51.6533 107.64 51.8453 107.533 52.144 107.32C52.4427 107.064 52.656 106.936 52.784 106.936C52.9547 106.936 53.04 107.021 53.04 107.192C53.04 107.32 53.2747 107.384 53.744 107.384C53.9147 107.384 54.32 107.299 54.96 107.128C55.6 106.915 56.2827 106.637 57.008 106.296C57.776 105.955 58.3733 105.699 58.8 105.528C59.2693 105.357 59.5467 105.251 59.632 105.208C59.6747 105.123 59.696 105.016 59.696 104.888C59.7387 104.76 59.8027 104.611 59.888 104.44C59.9733 104.184 60.0587 103.885 60.144 103.544C60.272 103.203 60.4427 102.797 60.656 102.328C60.9547 101.304 61.1893 100.515 61.36 99.96C61.5307 99.4053 61.616 99.0213 61.616 98.808L59.568 91.256C59.568 90.9573 59.5893 90.7227 59.632 90.552C59.632 90.3387 59.632 90.0827 59.632 89.784C59.6747 89.4427 59.7173 89.0373 59.76 88.568C59.9307 86.7333 60.0373 85.816 60.08 85.816C60.0373 85.7733 59.888 85.5387 59.632 85.112C59.4187 84.6853 59.0987 84.1093 58.672 83.384C58.2453 82.616 57.8827 81.8267 57.584 81.016C57.328 80.1627 57.1147 79.736 56.944 79.736L51.888 76.472H47.088C47.088 76.984 46.9813 77.2827 46.768 77.368C46.5547 77.4107 46.448 77.4747 46.448 77.56V78.712C46.448 79.0533 46.448 79.4587 46.448 79.928C46.448 80.3973 46.4267 80.9307 46.384 81.528V85.752C45.6587 86.136 45.2533 86.584 45.168 87.096C45.168 87.48 44.976 88.0773 44.592 88.888C44.5067 88.9733 44.464 89.1227 44.464 89.336C44.464 89.9333 44.464 90.36 44.464 90.616C44.5067 90.8293 44.464 91.2133 44.336 91.768C44.2507 91.8533 44.336 92.6 44.592 94.008C44.848 95.5013 44.9973 96.2693 45.04 96.312C44.9973 96.5253 44.9333 96.824 44.848 97.208C44.8053 97.592 44.72 98.04 44.592 98.552C44.464 99.064 44.3787 99.448 44.336 99.704C44.2933 99.96 44.272 100.131 44.272 100.216C44.272 100.728 44.336 101.645 44.464 102.968C44.5067 103.651 44.528 104.248 44.528 104.76C44.5707 105.229 44.592 105.571 44.592 105.784C44.6773 106.125 44.7413 106.467 44.784 106.808C44.8693 107.149 44.9547 107.512 45.04 107.896L47.152 108.664ZM98.618 72.568L99.706 73.336L100.218 74.872C100.09 74.9147 99.9407 74.9787 99.77 75.064C99.4713 75.2347 99.1087 75.4693 98.682 75.768C98.2553 76.024 97.8287 76.3013 97.402 76.6C97.018 76.856 96.6767 77.0907 96.378 77.304C96.122 77.4747 95.9727 77.56 95.93 77.56L95.162 77.944C94.8207 78.1573 94.4367 78.3493 94.01 78.52L92.794 79.16C92.5807 79.2453 92.3887 79.3307 92.218 79.416C92.09 79.5013 91.9407 79.5867 91.77 79.672C91.642 80.0133 91.4287 80.3973 91.13 80.824C90.8313 81.2507 90.5113 81.6773 90.17 82.104C89.8287 82.5307 89.466 82.9147 89.082 83.256C88.7407 83.5973 88.442 83.8747 88.186 84.088C88.2287 84.216 88.2287 84.3653 88.186 84.536C88.186 84.7067 88.122 84.8773 87.994 85.048C87.866 85.2613 87.738 85.7307 87.61 86.456C87.482 87.1387 87.354 88.0133 87.226 89.08C87.098 89.4213 86.8207 89.6987 86.394 89.912C86.01 90.0827 85.754 90.3387 85.626 90.68C85.5407 91.064 85.434 91.4907 85.306 91.96C85.2207 92.4293 85.3487 92.7067 85.69 92.792C86.2447 92.92 86.5647 93.0267 86.65 93.112C86.5647 93.7093 86.4793 94.2213 86.394 94.648C86.3513 95.032 86.2873 95.416 86.202 95.8C86.1593 96.184 86.1167 96.5893 86.074 97.016C86.0313 97.4 85.9887 97.8907 85.946 98.488C85.8607 99.7253 85.7967 100.707 85.754 101.432C85.754 102.115 85.7753 102.541 85.818 102.712L87.354 107.832C87.738 107.917 88.25 108.024 88.89 108.152C89.5727 108.237 90.3833 108.387 91.322 108.6C93.1567 108.941 94.1167 109.005 94.202 108.792C94.1593 108.493 95.1833 108.088 97.274 107.576C99.4073 107.107 100.474 106.723 100.474 106.424L101.818 106.552L100.986 110.008C100.901 110.051 100.794 110.072 100.666 110.072C100.581 110.072 100.495 110.093 100.41 110.136C100.197 110.179 99.962 110.221 99.706 110.264C99.4927 110.307 99.2153 110.371 98.874 110.456C98.1913 110.584 97.658 110.691 97.274 110.776C96.89 110.819 96.6553 110.861 96.57 110.904C95.546 111.032 94.7353 111.523 94.138 112.376C93.4127 113.229 93.0287 113.549 92.986 113.336C92.5593 113.507 92.0687 113.443 91.514 113.144C91.0873 112.76 90.2127 112.717 88.89 113.016L82.49 112.248L76.346 108.024C77.0287 107.512 76.73 105.699 75.45 102.584C75.1087 101.773 74.81 101.069 74.554 100.472C74.3407 99.8747 74.1487 99.384 73.978 99C73.8927 98.7867 73.8073 98.5947 73.722 98.424C73.6793 98.2107 73.6153 98.0187 73.53 97.848C73.4873 96.9947 73.594 96.0347 73.85 94.968C74.1487 93.8587 74.362 92.8133 74.49 91.832L75.642 91.064C76.2393 90.68 76.666 90.296 76.922 89.912C77.178 89.528 77.05 89.0373 76.538 88.44C76.6233 87.928 76.6873 87.3733 76.73 86.776C76.8153 86.1787 76.8793 85.6027 76.922 85.048C77.0073 84.4933 77.0713 84.024 77.114 83.64C77.1567 83.256 77.178 83.0427 77.178 83L79.674 79.416C79.7593 79.3307 80.0367 79.224 80.506 79.096C80.9753 78.968 81.594 78.7973 82.362 78.584C82.746 78.4987 83.0233 78.3707 83.194 78.2C83.4073 77.9867 83.5567 77.7947 83.642 77.624C83.7273 77.4107 83.7913 77.2187 83.834 77.048C83.9193 76.8773 84.0047 76.7707 84.09 76.728L92.73 74.104C93.4553 73.976 94.266 73.784 95.162 73.528C96.058 73.272 96.7407 72.9733 97.21 72.632L98.618 72.568ZM96.506 97.848C96.5487 97.8053 96.57 97.7627 96.57 97.72V97.656C96.2713 97.1867 95.994 96.8027 95.738 96.504C95.482 96.2053 95.3113 95.9707 95.226 95.8L97.466 93.304H99.322C99.4073 93.304 99.6207 93.3253 99.962 93.368C100.346 93.368 100.858 93.3893 101.498 93.432C102.735 93.5173 103.418 93.304 103.546 92.792H110.97C111.653 92.792 112.357 92.856 113.082 92.984C113.807 93.112 114.426 93.2187 114.938 93.304C114.938 93.6027 114.874 94.072 114.746 94.712C114.618 95.3093 114.533 95.8427 114.49 96.312C114.191 96.44 113.743 96.568 113.146 96.696C112.591 96.824 112.229 96.952 112.058 97.08L109.37 96.888L108.794 98.36C109.178 98.616 109.541 98.744 109.882 98.744C110.223 98.7013 110.671 98.7227 111.226 98.808C111.269 99.1493 111.226 99.6827 111.098 100.408C110.97 101.091 110.799 101.987 110.586 103.096C110.415 104.205 110.223 105.507 110.01 107C109.839 108.493 109.733 110.2 109.69 112.12L103.674 113.208L103.29 111.288C103.333 111.075 103.354 110.499 103.354 109.56C103.397 108.579 103.397 107.192 103.354 105.4C103.311 104.504 103.29 103.672 103.29 102.904C103.29 102.136 103.29 101.432 103.29 100.792V97.784C102.309 97.8693 101.327 97.976 100.346 98.104C99.4073 98.232 98.746 98.36 98.362 98.488L97.338 98.552L96.506 97.848ZM142.806 72.568L143.894 73.336L144.406 74.872C144.278 74.9147 144.128 74.9787 143.958 75.064C143.659 75.2347 143.296 75.4693 142.87 75.768C142.443 76.024 142.016 76.3013 141.59 76.6C141.206 76.856 140.864 77.0907 140.566 77.304C140.31 77.4747 140.16 77.56 140.118 77.56L139.35 77.944C139.008 78.1573 138.624 78.3493 138.198 78.52L136.982 79.16C136.768 79.2453 136.576 79.3307 136.406 79.416C136.278 79.5013 136.128 79.5867 135.958 79.672C135.83 80.0133 135.616 80.3973 135.318 80.824C135.019 81.2507 134.699 81.6773 134.358 82.104C134.016 82.5307 133.654 82.9147 133.27 83.256C132.928 83.5973 132.63 83.8747 132.374 84.088C132.416 84.216 132.416 84.3653 132.374 84.536C132.374 84.7067 132.31 84.8773 132.182 85.048C132.054 85.2613 131.926 85.7307 131.798 86.456C131.67 87.1387 131.542 88.0133 131.414 89.08C131.286 89.4213 131.008 89.6987 130.582 89.912C130.198 90.0827 129.942 90.3387 129.814 90.68C129.728 91.064 129.622 91.4907 129.494 91.96C129.408 92.4293 129.536 92.7067 129.878 92.792C130.432 92.92 130.752 93.0267 130.838 93.112C130.752 93.7093 130.667 94.2213 130.582 94.648C130.539 95.032 130.475 95.416 130.39 95.8C130.347 96.184 130.304 96.5893 130.262 97.016C130.219 97.4 130.176 97.8907 130.134 98.488C130.048 99.7253 129.984 100.707 129.942 101.432C129.942 102.115 129.963 102.541 130.006 102.712L131.542 107.832C131.926 107.917 132.438 108.024 133.078 108.152C133.76 108.237 134.571 108.387 135.51 108.6C137.344 108.941 138.304 109.005 138.39 108.792C138.347 108.493 139.371 108.088 141.462 107.576C143.595 107.107 144.662 106.723 144.662 106.424L146.006 106.552L145.174 110.008C145.088 110.051 144.982 110.072 144.854 110.072C144.768 110.072 144.683 110.093 144.598 110.136C144.384 110.179 144.15 110.221 143.894 110.264C143.68 110.307 143.403 110.371 143.062 110.456C142.379 110.584 141.846 110.691 141.462 110.776C141.078 110.819 140.843 110.861 140.758 110.904C139.734 111.032 138.923 111.523 138.326 112.376C137.6 113.229 137.216 113.549 137.174 113.336C136.747 113.507 136.256 113.443 135.702 113.144C135.275 112.76 134.4 112.717 133.078 113.016L126.678 112.248L120.534 108.024C121.216 107.512 120.918 105.699 119.638 102.584C119.296 101.773 118.998 101.069 118.742 100.472C118.528 99.8747 118.336 99.384 118.166 99C118.08 98.7867 117.995 98.5947 117.91 98.424C117.867 98.2107 117.803 98.0187 117.718 97.848C117.675 96.9947 117.782 96.0347 118.038 94.968C118.336 93.8587 118.55 92.8133 118.678 91.832L119.83 91.064C120.427 90.68 120.854 90.296 121.11 89.912C121.366 89.528 121.238 89.0373 120.726 88.44C120.811 87.928 120.875 87.3733 120.918 86.776C121.003 86.1787 121.067 85.6027 121.11 85.048C121.195 84.4933 121.259 84.024 121.302 83.64C121.344 83.256 121.366 83.0427 121.366 83L123.862 79.416C123.947 79.3307 124.224 79.224 124.694 79.096C125.163 78.968 125.782 78.7973 126.55 78.584C126.934 78.4987 127.211 78.3707 127.382 78.2C127.595 77.9867 127.744 77.7947 127.83 77.624C127.915 77.4107 127.979 77.2187 128.022 77.048C128.107 76.8773 128.192 76.7707 128.278 76.728L136.918 74.104C137.643 73.976 138.454 73.784 139.35 73.528C140.246 73.272 140.928 72.9733 141.398 72.632L142.806 72.568ZM140.694 97.848C140.736 97.8053 140.758 97.7627 140.758 97.72V97.656C140.459 97.1867 140.182 96.8027 139.926 96.504C139.67 96.2053 139.499 95.9707 139.414 95.8L141.654 93.304H143.51C143.595 93.304 143.808 93.3253 144.15 93.368C144.534 93.368 145.046 93.3893 145.686 93.432C146.923 93.5173 147.606 93.304 147.734 92.792H155.158C155.84 92.792 156.544 92.856 157.27 92.984C157.995 93.112 158.614 93.2187 159.126 93.304C159.126 93.6027 159.062 94.072 158.934 94.712C158.806 95.3093 158.72 95.8427 158.678 96.312C158.379 96.44 157.931 96.568 157.334 96.696C156.779 96.824 156.416 96.952 156.246 97.08L153.558 96.888L152.982 98.36C153.366 98.616 153.728 98.744 154.069 98.744C154.411 98.7013 154.859 98.7227 155.414 98.808C155.456 99.1493 155.414 99.6827 155.286 100.408C155.158 101.091 154.987 101.987 154.774 103.096C154.603 104.205 154.411 105.507 154.198 107C154.027 108.493 153.92 110.2 153.878 112.12L147.862 113.208L147.478 111.288C147.52 111.075 147.542 110.499 147.542 109.56C147.584 108.579 147.584 107.192 147.542 105.4C147.499 104.504 147.478 103.672 147.478 102.904C147.478 102.136 147.478 101.432 147.478 100.792V97.784C146.496 97.8693 145.515 97.976 144.534 98.104C143.595 98.232 142.934 98.36 142.55 98.488L141.526 98.552L140.694 97.848Z" fill="white"/>
</g>
<defs>
<filter id="filter0_d_33_24" x="28.3521" y="66.568" width="136.773" height="53.088" filterUnits="userSpaceOnUse" color-interpolation-filters="sRGB">
<feFlood flood-opacity="0" result="BackgroundImageFix"/>
<feColorMatrix in="SourceAlpha" type="matrix" values="0 0 0 0 0 0 0 0 0 0 0 0 0 0 0 0 0 0 127 0" result="hardAlpha"/>
<feOffset/>
<feGaussianBlur stdDeviation="3"/>
<feComposite in2="hardAlpha" operator="out"/>
<feColorMatrix type="matrix" values="0 0 0 0 0 0 0 0 0 0 0 0 0 0 0 0 0 0 1 0"/>
<feBlend mode="normal" in2="BackgroundImageFix" result="effect1_dropShadow_33_24"/>
<feBlend mode="normal" in="SourceGraphic" in2="effect1_dropShadow_33_24" result="shape"/>
</filter>
<linearGradient id="paint0_linear_33_24" x1="96" y1="0" x2="96" y2="192" gradientUnits="userSpaceOnUse">
<stop stop-color="#6D6363"/>
<stop offset="1" stop-color="#6D6363" stop-opacity="0"/>
</linearGradient>
</defs>
</svg>
