<svg width="64" height="64" viewBox="0 0 64 64" fill="none" xmlns="http://www.w3.org/2000/svg">
<rect width="64" height="64" rx="12" fill="#1E1E1E"/>
<rect width="64" height="64" rx="12" fill="url(#paint0_linear_30_16)"/>
<g filter="url(#filter0_d_30_16)">
<path d="M9.776 37.536V36.96C9.776 36.784 9.76 36.616 9.728 36.456C9.808 36.312 9.816 35.88 9.752 35.16C9.72 34.776 9.688 34.464 9.656 34.224C9.64 33.984 9.632 33.816 9.632 33.72V33.528C9.632 33.464 9.632 33.4 9.632 33.336C9.648 33.256 9.664 33.176 9.68 33.096C9.696 32.728 9.72 32.48 9.752 32.352C9.768 32.304 9.808 32.24 9.872 32.16C9.936 32.064 9.968 31.968 9.968 31.872C9.968 31.152 10 30.384 10.064 29.568C10.144 28.736 10.192 27.96 10.208 27.24C10.224 26.68 10.232 26.232 10.232 25.896C10.232 25.56 10.24 25.352 10.256 25.272C10.272 25.064 10.272 24.84 10.256 24.6C10.256 24.344 10.256 24.104 10.256 23.88C10.256 23.832 10.248 23.8 10.232 23.784L10.856 23.28H12.944C13.168 23.248 13.328 23.24 13.424 23.256C13.52 23.272 13.584 23.296 13.616 23.328L14.144 23.712C14.288 23.888 14.408 23.992 14.504 24.024C14.616 24.04 14.704 24.016 14.768 23.952C14.848 23.872 14.92 23.776 14.984 23.664C15.048 23.536 15.112 23.416 15.176 23.304L16.448 23.376L18.344 24.168C18.408 24.232 18.464 24.296 18.512 24.36C18.56 24.408 18.608 24.448 18.656 24.48C18.736 24.56 18.808 24.632 18.872 24.696C18.952 24.76 19.008 24.792 19.04 24.792C19.072 24.792 19.224 24.832 19.496 24.912C19.784 24.992 20.04 25.216 20.264 25.584C20.44 25.584 20.616 25.64 20.792 25.752C20.984 25.864 21.144 25.992 21.272 26.136C21.4 26.264 21.496 26.392 21.56 26.52C21.64 26.632 21.664 26.696 21.632 26.712C21.36 26.968 21.272 27.192 21.368 27.384C21.48 27.576 21.64 27.712 21.848 27.792C21.912 28.064 22.04 28.256 22.232 28.368C22.424 28.464 22.568 28.536 22.664 28.584C22.664 28.632 22.68 28.88 22.712 29.328C22.744 29.76 22.792 30.392 22.856 31.224C22.888 31.64 22.92 32.008 22.952 32.328C22.984 32.632 23.016 32.888 23.048 33.096C23.08 33.224 23.104 33.344 23.12 33.456C23.136 33.552 23.152 33.64 23.168 33.72C23.184 33.8 22.912 34.256 22.352 35.088C21.776 35.888 21.488 36.424 21.488 36.696H20.216C20.152 36.696 20.072 36.728 19.976 36.792C19.88 36.84 19.784 36.896 19.688 36.96L19.304 37.2C19.256 37.216 19.208 37.224 19.16 37.224C19.112 37.224 19.056 37.232 18.992 37.248C18.896 37.264 18.768 37.28 18.608 37.296C18.464 37.312 18.296 37.336 18.104 37.368C17.704 37.448 17.368 37.496 17.096 37.512C16.824 37.528 16.6 37.52 16.424 37.488C16.408 37.28 15.864 37.344 14.792 37.68C14.52 37.76 14.24 37.832 13.952 37.896C13.664 37.944 13.4 37.984 13.16 38.016C13.016 38.048 12.872 38.072 12.728 38.088C12.6 38.104 12.472 38.12 12.344 38.136L11.816 38.016C11.72 38.032 11.624 38.056 11.528 38.088C11.432 38.104 11.368 38.112 11.336 38.112C11.288 38.112 11.216 38.096 11.12 38.064C11.04 38.032 10.968 38.016 10.904 38.016C10.872 38.016 10.8 38.024 10.688 38.04C10.592 38.04 10.528 38.056 10.496 38.088L9.776 37.536ZM14.432 36.624C14.592 36.56 14.76 36.472 14.936 36.36C15.128 36.232 15.288 36.192 15.416 36.24H16.088C16.12 36.24 16.192 36.2 16.304 36.12C16.416 36.024 16.496 35.976 16.544 35.976C16.608 35.976 16.64 36.008 16.64 36.072C16.64 36.12 16.728 36.144 16.904 36.144C16.968 36.144 17.12 36.112 17.36 36.048C17.6 35.968 17.856 35.864 18.128 35.736C18.416 35.608 18.64 35.512 18.8 35.448C18.976 35.384 19.08 35.344 19.112 35.328C19.128 35.296 19.136 35.256 19.136 35.208C19.152 35.16 19.176 35.104 19.208 35.04C19.24 34.944 19.272 34.832 19.304 34.704C19.352 34.576 19.416 34.424 19.496 34.248C19.608 33.864 19.696 33.568 19.76 33.36C19.824 33.152 19.856 33.008 19.856 32.928L19.088 30.096C19.088 29.984 19.096 29.896 19.112 29.832C19.112 29.752 19.112 29.656 19.112 29.544C19.128 29.416 19.144 29.264 19.16 29.088C19.224 28.4 19.264 28.056 19.28 28.056C19.264 28.04 19.208 27.952 19.112 27.792C19.032 27.632 18.912 27.416 18.752 27.144C18.592 26.856 18.456 26.56 18.344 26.256C18.248 25.936 18.168 25.776 18.104 25.776L16.208 24.552H14.408C14.408 24.744 14.368 24.856 14.288 24.888C14.208 24.904 14.168 24.928 14.168 24.96V25.392C14.168 25.52 14.168 25.672 14.168 25.848C14.168 26.024 14.16 26.224 14.144 26.448V28.032C13.872 28.176 13.72 28.344 13.688 28.536C13.688 28.68 13.616 28.904 13.472 29.208C13.44 29.24 13.424 29.296 13.424 29.376C13.424 29.6 13.424 29.76 13.424 29.856C13.44 29.936 13.424 30.08 13.376 30.288C13.344 30.32 13.376 30.6 13.472 31.128C13.568 31.688 13.624 31.976 13.64 31.992C13.624 32.072 13.6 32.184 13.568 32.328C13.552 32.472 13.52 32.64 13.472 32.832C13.424 33.024 13.392 33.168 13.376 33.264C13.36 33.36 13.352 33.424 13.352 33.456C13.352 33.648 13.376 33.992 13.424 34.488C13.44 34.744 13.448 34.968 13.448 35.16C13.464 35.336 13.472 35.464 13.472 35.544C13.504 35.672 13.528 35.8 13.544 35.928C13.576 36.056 13.608 36.192 13.64 36.336L14.432 36.624ZM33.7318 23.088L34.1398 23.376L34.3318 23.952C34.2838 23.968 34.2278 23.992 34.1638 24.024C34.0518 24.088 33.9158 24.176 33.7558 24.288C33.5958 24.384 33.4358 24.488 33.2758 24.6C33.1318 24.696 33.0038 24.784 32.8918 24.864C32.7958 24.928 32.7398 24.96 32.7238 24.96L32.4358 25.104C32.3078 25.184 32.1638 25.256 32.0038 25.32L31.5478 25.56C31.4678 25.592 31.3958 25.624 31.3318 25.656C31.2838 25.688 31.2278 25.72 31.1638 25.752C31.1158 25.88 31.0358 26.024 30.9238 26.184C30.8118 26.344 30.6918 26.504 30.5638 26.664C30.4358 26.824 30.2998 26.968 30.1558 27.096C30.0278 27.224 29.9158 27.328 29.8198 27.408C29.8358 27.456 29.8358 27.512 29.8198 27.576C29.8198 27.64 29.7958 27.704 29.7478 27.768C29.6998 27.848 29.6518 28.024 29.6038 28.296C29.5558 28.552 29.5078 28.88 29.4598 29.28C29.4118 29.408 29.3078 29.512 29.1478 29.592C29.0038 29.656 28.9078 29.752 28.8598 29.88C28.8278 30.024 28.7878 30.184 28.7398 30.36C28.7078 30.536 28.7558 30.64 28.8838 30.672C29.0918 30.72 29.2118 30.76 29.2438 30.792C29.2118 31.016 29.1798 31.208 29.1478 31.368C29.1318 31.512 29.1078 31.656 29.0758 31.8C29.0598 31.944 29.0438 32.096 29.0278 32.256C29.0118 32.4 28.9958 32.584 28.9798 32.808C28.9478 33.272 28.9238 33.64 28.9078 33.912C28.9078 34.168 28.9158 34.328 28.9318 34.392L29.5078 36.312C29.6518 36.344 29.8438 36.384 30.0838 36.432C30.3398 36.464 30.6438 36.52 30.9958 36.6C31.6838 36.728 32.0438 36.752 32.0758 36.672C32.0598 36.56 32.4438 36.408 33.2278 36.216C34.0278 36.04 34.4278 35.896 34.4278 35.784L34.9318 35.832L34.6198 37.128C34.5878 37.144 34.5478 37.152 34.4998 37.152C34.4678 37.152 34.4358 37.16 34.4038 37.176C34.3238 37.192 34.2358 37.208 34.1398 37.224C34.0598 37.24 33.9558 37.264 33.8278 37.296C33.5718 37.344 33.3718 37.384 33.2278 37.416C33.0838 37.432 32.9958 37.448 32.9638 37.464C32.5798 37.512 32.2758 37.696 32.0518 38.016C31.7798 38.336 31.6358 38.456 31.6198 38.376C31.4598 38.44 31.2758 38.416 31.0678 38.304C30.9078 38.16 30.5798 38.144 30.0838 38.256L27.6838 37.968L25.3798 36.384C25.6358 36.192 25.5238 35.512 25.0438 34.344C24.9158 34.04 24.8038 33.776 24.7078 33.552C24.6278 33.328 24.5558 33.144 24.4918 33C24.4598 32.92 24.4278 32.848 24.3958 32.784C24.3798 32.704 24.3558 32.632 24.3238 32.568C24.3078 32.248 24.3478 31.888 24.4438 31.488C24.5558 31.072 24.6358 30.68 24.6838 30.312L25.1158 30.024C25.3398 29.88 25.4998 29.736 25.5958 29.592C25.6918 29.448 25.6438 29.264 25.4518 29.04C25.4838 28.848 25.5078 28.64 25.5238 28.416C25.5558 28.192 25.5798 27.976 25.5958 27.768C25.6278 27.56 25.6518 27.384 25.6678 27.24C25.6838 27.096 25.6918 27.016 25.6918 27L26.6278 25.656C26.6598 25.624 26.7638 25.584 26.9398 25.536C27.1158 25.488 27.3478 25.424 27.6358 25.344C27.7798 25.312 27.8838 25.264 27.9478 25.2C28.0278 25.12 28.0838 25.048 28.1158 24.984C28.1478 24.904 28.1718 24.832 28.1878 24.768C28.2198 24.704 28.2518 24.664 28.2838 24.648L31.5238 23.664C31.7958 23.616 32.0998 23.544 32.4358 23.448C32.7718 23.352 33.0278 23.24 33.2038 23.112L33.7318 23.088ZM32.9398 32.568C32.9558 32.552 32.9638 32.536 32.9638 32.52V32.496C32.8518 32.32 32.7478 32.176 32.6518 32.064C32.5558 31.952 32.4918 31.864 32.4598 31.8L33.2998 30.864H33.9958C34.0278 30.864 34.1078 30.872 34.2358 30.888C34.3798 30.888 34.5718 30.896 34.8118 30.912C35.2758 30.944 35.5318 30.864 35.5798 30.672H38.3638C38.6198 30.672 38.8838 30.696 39.1558 30.744C39.4278 30.792 39.6598 30.832 39.8518 30.864C39.8518 30.976 39.8278 31.152 39.7798 31.392C39.7318 31.616 39.6998 31.816 39.6838 31.992C39.5718 32.04 39.4038 32.088 39.1798 32.136C38.9718 32.184 38.8358 32.232 38.7718 32.28L37.7638 32.208L37.5478 32.76C37.6918 32.856 37.8278 32.904 37.9557 32.904C38.0838 32.888 38.2518 32.896 38.4598 32.928C38.4758 33.056 38.4598 33.256 38.4118 33.528C38.3638 33.784 38.2998 34.12 38.2198 34.536C38.1558 34.952 38.0838 35.44 38.0038 36C37.9398 36.56 37.8998 37.2 37.8838 37.92L35.6278 38.328L35.4838 37.608C35.4998 37.528 35.5078 37.312 35.5078 36.96C35.5238 36.592 35.5238 36.072 35.5078 35.4C35.4918 35.064 35.4838 34.752 35.4838 34.464C35.4838 34.176 35.4838 33.912 35.4838 33.672V32.544C35.1158 32.576 34.7478 32.616 34.3798 32.664C34.0278 32.712 33.7798 32.76 33.6358 32.808L33.2518 32.832L32.9398 32.568ZM50.3021 23.088L50.7101 23.376L50.9021 23.952C50.8541 23.968 50.7981 23.992 50.7341 24.024C50.6221 24.088 50.4861 24.176 50.3261 24.288C50.1661 24.384 50.0061 24.488 49.8461 24.6C49.7021 24.696 49.5741 24.784 49.4621 24.864C49.3661 24.928 49.3101 24.96 49.2941 24.96L49.0061 25.104C48.8781 25.184 48.7341 25.256 48.5741 25.32L48.1181 25.56C48.0381 25.592 47.9661 25.624 47.9021 25.656C47.8541 25.688 47.7981 25.72 47.7341 25.752C47.6861 25.88 47.6061 26.024 47.4941 26.184C47.3821 26.344 47.2621 26.504 47.1341 26.664C47.0061 26.824 46.8701 26.968 46.7261 27.096C46.5981 27.224 46.4861 27.328 46.3901 27.408C46.4061 27.456 46.4061 27.512 46.3901 27.576C46.3901 27.64 46.3661 27.704 46.3181 27.768C46.2701 27.848 46.2221 28.024 46.1741 28.296C46.1261 28.552 46.0781 28.88 46.0301 29.28C45.9821 29.408 45.8781 29.512 45.7181 29.592C45.5741 29.656 45.4781 29.752 45.4301 29.88C45.3981 30.024 45.3581 30.184 45.3101 30.36C45.2781 30.536 45.3261 30.64 45.4541 30.672C45.6621 30.72 45.7821 30.76 45.8141 30.792C45.7821 31.016 45.7501 31.208 45.7181 31.368C45.7021 31.512 45.6781 31.656 45.6461 31.8C45.6301 31.944 45.6141 32.096 45.5981 32.256C45.5821 32.4 45.5661 32.584 45.5501 32.808C45.5181 33.272 45.4941 33.64 45.4781 33.912C45.4781 34.168 45.4861 34.328 45.5021 34.392L46.0781 36.312C46.2221 36.344 46.4141 36.384 46.6541 36.432C46.9101 36.464 47.2141 36.52 47.5661 36.6C48.2541 36.728 48.6141 36.752 48.6461 36.672C48.6301 36.56 49.0141 36.408 49.7981 36.216C50.5981 36.04 50.9981 35.896 50.9981 35.784L51.5021 35.832L51.1901 37.128C51.1581 37.144 51.1181 37.152 51.0701 37.152C51.0381 37.152 51.0061 37.16 50.9741 37.176C50.8941 37.192 50.8061 37.208 50.7101 37.224C50.6301 37.24 50.5261 37.264 50.3981 37.296C50.1421 37.344 49.9421 37.384 49.7981 37.416C49.6541 37.432 49.5661 37.448 49.5341 37.464C49.1501 37.512 48.8461 37.696 48.6221 38.016C48.3501 38.336 48.2061 38.456 48.1901 38.376C48.0301 38.44 47.8461 38.416 47.6381 38.304C47.4781 38.16 47.1501 38.144 46.6541 38.256L44.2541 37.968L41.9501 36.384C42.2061 36.192 42.0941 35.512 41.6141 34.344C41.4861 34.04 41.3741 33.776 41.2781 33.552C41.1981 33.328 41.1261 33.144 41.0621 33C41.0301 32.92 40.9981 32.848 40.9661 32.784C40.9501 32.704 40.9261 32.632 40.8941 32.568C40.8781 32.248 40.9181 31.888 41.0141 31.488C41.1261 31.072 41.2061 30.68 41.2541 30.312L41.6861 30.024C41.9101 29.88 42.0701 29.736 42.1661 29.592C42.2621 29.448 42.2141 29.264 42.0221 29.04C42.0541 28.848 42.0781 28.64 42.0941 28.416C42.1261 28.192 42.1501 27.976 42.1661 27.768C42.1981 27.56 42.2221 27.384 42.2381 27.24C42.2541 27.096 42.2621 27.016 42.2621 27L43.1981 25.656C43.2301 25.624 43.3341 25.584 43.5101 25.536C43.6861 25.488 43.9181 25.424 44.2061 25.344C44.3501 25.312 44.4541 25.264 44.5181 25.2C44.5981 25.12 44.6541 25.048 44.6861 24.984C44.7181 24.904 44.7421 24.832 44.7581 24.768C44.7901 24.704 44.8221 24.664 44.8541 24.648L48.0941 23.664C48.3661 23.616 48.6701 23.544 49.0061 23.448C49.3421 23.352 49.5981 23.24 49.7741 23.112L50.3021 23.088ZM49.5101 32.568C49.5261 32.552 49.5341 32.536 49.5341 32.52V32.496C49.4221 32.32 49.3181 32.176 49.2221 32.064C49.1261 31.952 49.0621 31.864 49.0301 31.8L49.8701 30.864H50.5661C50.5981 30.864 50.6781 30.872 50.8061 30.888C50.9501 30.888 51.1421 30.896 51.3821 30.912C51.8461 30.944 52.1021 30.864 52.1501 30.672H54.9341C55.1901 30.672 55.4541 30.696 55.7261 30.744C55.9981 30.792 56.2301 30.832 56.4221 30.864C56.4221 30.976 56.3981 31.152 56.3501 31.392C56.3021 31.616 56.2701 31.816 56.2541 31.992C56.1421 32.04 55.9741 32.088 55.7501 32.136C55.5421 32.184 55.4061 32.232 55.3421 32.28L54.3341 32.208L54.1181 32.76C54.2621 32.856 54.3981 32.904 54.5261 32.904C54.6541 32.888 54.8221 32.896 55.0301 32.928C55.0461 33.056 55.0301 33.256 54.9821 33.528C54.9341 33.784 54.8701 34.12 54.7901 34.536C54.7261 34.952 54.6541 35.44 54.5741 36C54.5101 36.56 54.4701 37.2 54.4541 37.92L52.1981 38.328L52.0541 37.608C52.0701 37.528 52.0781 37.312 52.0781 36.96C52.0941 36.592 52.0941 36.072 52.0781 35.4C52.0621 35.064 52.0541 34.752 52.0541 34.464C52.0541 34.176 52.0541 33.912 52.0541 33.672V32.544C51.6861 32.576 51.3181 32.616 50.9501 32.664C50.5981 32.712 50.3501 32.76 50.2061 32.808L49.8221 32.832L49.5101 32.568Z" fill="white"/>
</g>
<defs>
<filter id="filter0_d_30_16" x="3.63196" y="17.088" width="58.7902" height="27.408" filterUnits="userSpaceOnUse" color-interpolation-filters="sRGB">
<feFlood flood-opacity="0" result="BackgroundImageFix"/>
<feColorMatrix in="SourceAlpha" type="matrix" values="0 0 0 0 0 0 0 0 0 0 0 0 0 0 0 0 0 0 127 0" result="hardAlpha"/>
<feOffset/>
<feGaussianBlur stdDeviation="3"/>
<feComposite in2="hardAlpha" operator="out"/>
<feColorMatrix type="matrix" values="0 0 0 0 0 0 0 0 0 0 0 0 0 0 0 0 0 0 1 0"/>
<feBlend mode="normal" in2="BackgroundImageFix" result="effect1_dropShadow_30_16"/>
<feBlend mode="normal" in="SourceGraphic" in2="effect1_dropShadow_30_16" result="shape"/>
</filter>
<linearGradient id="paint0_linear_30_16" x1="32" y1="0" x2="32" y2="64" gradientUnits="userSpaceOnUse">
<stop stop-color="#6D6363"/>
<stop offset="1" stop-color="#6D6363" stop-opacity="0"/>
</linearGradient>
</defs>
</svg>
